<?xml version="1.0" standalone="no"?>
<!DOCTYPE svg PUBLIC "-//W3C//DTD SVG 1.1//EN" "http://www.w3.org/Graphics/SVG/1.1/DTD/svg11.dtd" >
<svg>
<metadata>
Created by FontForge 20090914 at Thu Feb 23 21:00:24 2012
 By www-data
(c) Copyright 1995-1997 International Typeface Corporation  All rights reserved.
</metadata>
<defs>
<font id="BlairITCTTLight" horiz-adv-x="500" >
  <font-face 
    font-family="BlairITC TT"
    font-weight="300"
    font-stretch="normal"
    units-per-em="1000"
    panose-1="0 0 3 0 0 0 0 0 0 0"
    ascent="800"
    descent="-200"
    x-height="615"
    cap-height="724"
    bbox="-212 -236 1492 927"
    underline-thickness="63"
    underline-position="-48"
    unicode-range="U+0020-U+F002"
  />
<missing-glyph 
d="M63 0v771h375v-771h-375zM125 63h250v646h-250v-646z" />
    <glyph glyph-name=".notdef" 
d="M63 0v771h375v-771h-375zM125 63h250v646h-250v-646z" />
    <glyph glyph-name="space" unicode=" " horiz-adv-x="270" 
 />
    <glyph glyph-name="exclam" unicode="!" horiz-adv-x="320" 
d="M206 695l-15 -551h-61l-15 580h91v-29zM220 0h-120v63h120v-63z" />
    <glyph glyph-name="quotedbl" unicode="&#x22;" horiz-adv-x="278" 
d="M97 700v-270h-49v270h49zM231 700v-270h-50v270h50z" />
    <glyph glyph-name="numbersign" unicode="#" horiz-adv-x="912" 
d="M715 534h-96l-27 -177h91v-50h-99l-27 -191h-52l29 191h-198l-29 -191h-52l29 191h-98v50h105l27 177h-97v50h104l22 140h50l-21 -140h199l22 140h49l-20 -140h89v-50zM568 534h-199l-27 -177h199z" />
    <glyph glyph-name="dollar" unicode="$" horiz-adv-x="912" 
d="M480 404c110.667 -1.33301 192.5 -17.667 245.5 -49s79.5 -80.666 79.5 -147.999c0 -140.667 -108.333 -213 -325 -217v-56h-59v57c-138.667 9.33301 -243.334 44.333 -314.001 105l30 48c84.667 -58 179.334 -90.667 284.001 -98v305c-202.667 0 -304 56.667 -304 170
c0 131.333 101.333 200.666 304 207.999v38h59v-39c120 -6 212.667 -29.667 278 -71l-39 -48c-75.333 40 -155 61 -239 63v-268zM421 407.999v266c-158.667 -3.33301 -238 -52 -238 -146c0 -42 19.333 -72.5 58 -91.5s98.667 -28.5 180 -28.5zM480 43.999
c83.333 2.66699 147.333 17.832 192 45.499s67 64.834 67 111.501c0 96.667 -86.333 146 -259 148v-305z" />
    <glyph glyph-name="percent" unicode="%" horiz-adv-x="1078" 
d="M980 182c0 -53.333 -18.001 -98.667 -54.001 -136c-38 -39.333 -82.333 -59 -133 -59s-95 19.667 -133 59c-34.667 36 -52 81.333 -52 136s17.333 100.334 52 137.001c38 40 82.333 60 133 60s95.334 -20 134.001 -60c35.333 -36.667 53 -82.334 53 -137.001z
M884.999 723.999l-612 -734h-80l613 734h79zM469.999 541.999c0 -54 -18.334 -100.001 -55.001 -138.001s-80.667 -57 -132 -57s-95.666 19.333 -132.999 58c-34.667 36 -52 81.667 -52 137c0 54.667 17.333 100.334 52 137.001c38 40 82.333 60 133 60
c50 0 94.333 -20 133 -60c36 -37.333 54 -83 54 -137zM923.998 181.998c0 40.667 -13 75.334 -39 104.001s-56.667 43 -92 43s-65.833 -14.333 -91.5 -43s-38.5 -63.334 -38.5 -104.001s12.667 -75.167 38 -103.5s56 -42.5 92 -42.5s66.833 14.333 92.5 43s38.5 63 38.5 103
zM413.998 541.998c0 40.667 -13 75.334 -39 104.001s-56.667 43 -92 43s-65.833 -14.333 -91.5 -43s-38.5 -63.334 -38.5 -104.001s12.667 -75.167 38 -103.5s56 -42.5 92 -42.5s66.833 14.333 92.5 43s38.5 63 38.5 103z" />
    <glyph glyph-name="ampersand" unicode="&#x26;" horiz-adv-x="971" 
d="M878 -1c-85.333 8 -164.001 34.999 -236.001 80.999c-81.333 -62 -177 -93 -287 -93c-78 0 -141.167 19.333 -189.5 58s-72.5 87.667 -72.5 147c0 109.333 90.333 183.666 271 222.999c-37.333 55.333 -56 103.333 -56 144c0 50 17.167 91.5 51.5 124.5
s77.833 49.5 130.5 49.5c52 0 94.167 -15.667 126.5 -47s48.5 -71.666 48.5 -120.999c0 -97.333 -69.667 -159.333 -209 -186c52.667 -80 115.334 -152.667 188.001 -218c46 32.667 88.667 96.334 128 191.001h66c-42 -105.333 -92.333 -182 -151 -230
c58 -34.667 121.667 -54.667 191 -60v-63zM423.999 426.999c57.333 6 101.334 21.1689 132.001 45.502s46 55.166 46 92.499c0 31.333 -10.333 57.166 -31 77.499s-47.334 30.5 -80.001 30.5c-35.333 0 -64 -10.833 -86 -32.5s-33 -50.167 -33 -85.5
c0 -40 17.333 -82.667 52 -128zM599 123.001c-76.667 74.667 -143.668 155 -201.001 241c-155.333 -26.667 -233 -84 -233 -172c0 -43.333 18.333 -78.333 55 -105s86.334 -40 149.001 -40c71.333 0 148 25.333 230 76z" />
    <glyph glyph-name="quotesingle" unicode="'" horiz-adv-x="144" 
d="M97 700v-270h-49v270h49z" />
    <glyph glyph-name="parenleft" unicode="(" horiz-adv-x="443" 
d="M368 -141c-66.667 2 -121.333 38.3311 -164 108.998c-54.667 90.667 -82 209.334 -82 356.001c0 147.333 27.667 267 83 359c42 70.667 96.333 107.334 163 110.001v-34c-42 -2.66699 -77 -29 -105 -79c-51.333 -92 -77 -210.667 -77 -356
c0 -129.333 19.667 -237 59 -323c31.333 -69.333 72.333 -105.333 123 -108v-34z" />
    <glyph glyph-name="parenright" unicode=")" horiz-adv-x="443" 
d="M75 793c66.667 -2.66699 121 -39.333 163 -110c55.333 -93.333 83 -213 83 -359c0 -145.333 -27.667 -264 -83 -356c-42.667 -70.667 -97 -107 -163 -109v34c50 3.33301 90.667 39.333 122 108c40 88 60 195.667 60 323c0 144.667 -25.667 263.334 -77 356.001
c-27.333 49.333 -62.333 75.666 -105 78.999v34z" />
    <glyph glyph-name="asterisk" unicode="*" horiz-adv-x="620" 
d="M512 559l-171 -42l123 -138l-49 -36l-100 154l-94 -160l-50 36l116 142l-179 35l19 59l169 -65l-20 180h61l-9 -181l165 74z" />
    <glyph glyph-name="plus" unicode="+" horiz-adv-x="336" 
d="M215 0l-64.999 0.000976562v552l-99 -45v53c37.333 15.333 70.666 33.666 99.999 54.999h64v-615z" />
    <glyph glyph-name="comma" unicode="," horiz-adv-x="320" 
d="M220 -30c0 -54.667 -32.333 -82 -97 -82h-16v30c41.333 3.33301 62 20.333 62 51v31h-69v63h120v-93z" />
    <glyph glyph-name="hyphen" unicode="-" horiz-adv-x="437" 
d="M377 292h-317v63h317v-63z" />
    <glyph glyph-name="hyphen" unicode="&#x2010;" horiz-adv-x="437" 
d="M377 292h-317v63h317v-63z" />
    <glyph glyph-name="period" unicode="." horiz-adv-x="320" 
d="M220 0h-120v63h120v-63z" />
    <glyph glyph-name="slash" unicode="/" horiz-adv-x="505" 
d="M507 724l-429 -734h-80l430 734h79z" />
    <glyph glyph-name="zero" unicode="0" horiz-adv-x="885" 
d="M796 362c0 -62 -13.5 -119.833 -40.5 -173.5s-65.167 -98.5 -114.5 -134.5c-60 -44 -126.333 -66 -199 -66c-73.333 0 -140 22 -200 66c-48.667 36 -86.334 80.833 -113.001 134.5s-40 111.5 -40 173.5s13.333 119.833 40 173.5s64.334 98.167 113.001 133.5
c59.333 43.333 126 65 200 65s140.667 -21.667 200 -65c48.667 -36 86.5 -80.833 113.5 -134.5s40.5 -111.167 40.5 -172.5zM730 362c0 107.333 -41.668 192.333 -125.001 255c-48.667 36.667 -103 55 -163 55s-114.333 -18.333 -163 -55
c-82.667 -62.667 -124 -147.667 -124 -255s41.333 -193 124 -257c48 -37.333 102.333 -56 163 -56s115.334 18.667 164.001 56c82.667 63.333 124 149 124 257z" />
    <glyph glyph-name="one" unicode="1" horiz-adv-x="342" 
d="M221 0h-65v663l-116 -53v50c42 16.667 80.667 38 116 64h65v-724z" />
    <glyph glyph-name="two" unicode="2" horiz-adv-x="784" 
d="M721 0l-680 -0.000976562c5.33301 77.333 26.333 141.333 63 192c26.667 36 61.334 66.333 104.001 91c31.333 18.667 77 38.667 137 60c5.33301 2 43.666 14 114.999 36c43.333 13.333 77 27 101 41c45.333 26.667 68 62.334 68 107.001c0 44 -20.833 79.333 -62.5 106
s-98.834 40 -171.501 40c-97.333 0 -188.666 -33.333 -273.999 -100l-39 48c100 75.333 204.667 113 314 113c92 0 165.833 -19.333 221.5 -58s83.5 -88 83.5 -148c0 -50 -15.333 -90.333 -46 -121s-80 -56.334 -148 -77.001l-116 -35
c-43.333 -13.333 -79.333 -26.666 -108 -39.999c-86.667 -40.667 -143 -104.667 -169 -192h607v-63z" />
    <glyph glyph-name="three" unicode="3" horiz-adv-x="802" 
d="M544 377c118.667 -21.333 177.999 -80.335 177.999 -177.002c0 -68.667 -30.5 -121.167 -91.5 -157.5s-149.833 -54.5 -266.5 -54.5c-74.667 0 -137.667 9.66699 -189 29c-54 20.667 -102 54.334 -144 101.001l40 51c68.667 -78.667 166 -118 292 -118
c190 0 285 52.333 285 157c0 90.667 -107.333 136 -322 136h-37v57c13.333 -0.666992 33 -1 59 -1c178 0 267 46.333 267 139c0 42 -19.5 74.833 -58.5 98.5s-93.833 35.5 -164.5 35.5c-96 0 -186 -28.333 -270 -85l-38 48c102.667 65.333 204.334 98 305.001 98
c95.333 0 169.5 -17 222.5 -51s79.5 -80.667 79.5 -140c0 -81.333 -49 -136.666 -147 -165.999z" />
    <glyph glyph-name="four" unicode="4" horiz-adv-x="781" 
d="M751 152h-167v-152h-65v152h-489v64l489 508h65v-509h167v-63zM519 215v434l-426 -434h426z" />
    <glyph glyph-name="five" unicode="5" horiz-adv-x="799" 
d="M118 388c83.333 48 173.333 72 270 72c99.333 0 180.333 -23 243 -69c60.667 -44.667 91 -101 91 -169c0 -70 -28.833 -126.5 -86.5 -169.5s-135.834 -64.5 -234.501 -64.5c-156 0 -275 41.333 -357 124l61 33c90 -63.333 185 -95 285 -95c80 0 143.333 16.167 190 48.5
s70 73.833 70 124.5c0 52 -24.167 94.333 -72.5 127s-113.166 49 -194.499 49c-92.667 0 -181.667 -28.333 -267 -85l-67 55l105 355h515v-63h-471z" />
    <glyph glyph-name="six" unicode="6" horiz-adv-x="872" 
d="M157 284c77.333 102 181.332 153.001 311.999 153.001c99.333 0 182.333 -27.667 249 -83c45.333 -38 68 -85 68 -141c0 -66.667 -28 -120.667 -84 -162c-58.667 -42 -137 -63 -235 -63c-114 0 -206.667 34.667 -278 104c-73.333 71.333 -110 160.333 -110 267
c0 80 22 151 66 213c36.667 51.333 83.334 91.166 140.001 119.499s118 42.5 184 42.5c109.333 0 200 -36 272 -108l-49 -41c-53.333 58.667 -133.333 88 -240 88c-90.667 0 -163.667 -29 -219 -87s-83 -135.667 -83 -233c0 -23.333 2.33301 -46.333 7 -69zM179.999 213.001
c56.667 -108 153.667 -161.999 291 -161.999c74.667 0 133.167 14.667 175.5 44s63.5 69 63.5 119c0 47.333 -22 86 -66 116s-103 45 -177 45c-59.333 0 -114.5 -14.333 -165.5 -43s-91.5 -68.334 -121.5 -119.001z" />
    <glyph glyph-name="seven" unicode="7" horiz-adv-x="729" 
d="M695 661l-459 -661h-80l462 661h-594v63h671v-63z" />
    <glyph glyph-name="eight" unicode="8" horiz-adv-x="846" 
d="M552 374c149.333 -25.333 223.999 -87.667 223.999 -187c0 -62 -30.667 -110.667 -92 -146s-149.333 -53 -264 -53s-202.667 17.5 -264 52.5s-92 83.5 -92 145.5c0 101.333 74.667 164 224 188c-55.333 10 -98.166 29.667 -128.499 59s-45.5 65.333 -45.5 108
c0 59.333 26.833 106.333 80.5 141s128.5 52 224.5 52s171 -17.5 225 -52.5s81 -81.833 81 -140.5c0 -86 -57.667 -141.667 -173 -167zM657.999 540.999c0 42 -20.499 74.499 -61.499 97.499s-100.167 34.5 -177.5 34.5c-76 0 -134.333 -11.5 -175 -34.5
s-61 -55.5 -61 -97.5c0 -43.333 20.667 -77.666 62 -102.999s99.666 -38 174.999 -38c76 0 134.667 12.5 176 37.5s62 59.5 62 103.5zM698 191.998c0 47.333 -23.832 83.833 -71.499 109.5s-116.834 38.5 -207.501 38.5c-91.333 0 -161.333 -12.833 -210 -38.5
s-73 -61.167 -73 -106.5c0 -44 24.833 -79.167 74.5 -105.5s119.167 -39.5 208.5 -39.5c90 0 159 12.5 207 37.5s72 59.833 72 104.5z" />
    <glyph glyph-name="nine" unicode="9" horiz-adv-x="869" 
d="M700 444c-38 -50 -85.3301 -88.832 -141.997 -116.499s-117 -41.5 -181 -41.5c-88 0 -161 20 -219 60s-87 92.333 -87 157c0 68 28.667 123.333 86 166s134.666 64 231.999 64c119.333 0 215 -34.167 287 -102.5s108 -157.166 108 -266.499
c0 -68.667 -16.5 -131.334 -49.5 -188.001s-80.333 -102.167 -142 -136.5s-127.834 -51.5 -198.501 -51.5c-112.667 0 -206.334 37.333 -281.001 112l40 45c65.333 -63.333 146 -95 242 -95c70 0 131 18 183 54c41.333 28.667 73.833 65.5 97.5 110.5
s35.5 93.167 35.5 144.5c0 29.333 -3.66699 57.666 -11 84.999zM678.003 514.001c-38 58.667 -79.333 99.834 -124 123.501s-102.334 35.5 -173.001 35.5c-77.333 0 -136.666 -14.5 -177.999 -43.5s-62 -69.5 -62 -121.5c0 -48 21.333 -87 64 -117s99.334 -45 170.001 -45
c64 0 122.667 14.667 176 44s95.666 70.666 126.999 123.999z" />
    <glyph glyph-name="colon" unicode=":" horiz-adv-x="320" 
d="M220 410h-120v63h120v-63zM220 0h-120v63h120v-63z" />
    <glyph glyph-name="semicolon" unicode=";" horiz-adv-x="320" 
d="M220 410h-120v63h120v-63zM220 -30c0 -54.667 -32.333 -82 -97 -82h-16v30c41.333 3.33301 62 20.333 62 51v31h-69v63h120v-93z" />
    <glyph glyph-name="less" unicode="&#x3c;" horiz-adv-x="685" 
d="M627 0l-587.998 0.00195312c5.33301 79.333 29.666 142.333 72.999 189s109.666 83.5 198.999 110.5s145.333 46.833 168 59.5c38.667 20.667 58 49.667 58 87c0 35.333 -16.833 63.666 -50.5 84.999s-79.5 32 -137.5 32c-87.333 0 -166.333 -28 -237 -84l-40 46
c86 65.333 177.333 98 274 98c80.667 0 144.834 -16.333 192.501 -49s71.5 -76.334 71.5 -131.001c0 -39.333 -12.667 -72.333 -38 -99c-18.667 -19.333 -44.334 -35.333 -77.001 -48c-12.667 -5.33301 -46.667 -16 -102 -32c-50.667 -14.667 -80.667 -23.667 -90 -27
c-30.667 -10 -55.667 -21 -75 -33c-54 -33.333 -90.667 -80.333 -110 -141h509v-63z" />
    <glyph glyph-name="equal" unicode="=" horiz-adv-x="682" 
d="M463 322c94 -22.667 140.998 -74.333 140.998 -155c0 -56 -26.5 -99.5 -79.5 -130.5s-129.5 -46.5 -229.5 -46.5c-124 0 -220.667 37.667 -290 113l38 46c68.667 -64 152.334 -96 251.001 -96c158 0 237 42 237 126c0 75.333 -94.333 113 -283 113h-22v55
c13.333 -0.666992 32 -1 56 -1c147.333 0 221 36.333 221 109c0 34 -16 60.5 -48 79.5s-77.333 28.5 -136 28.5c-81.333 0 -159 -23.667 -233 -71l-36 46c90.667 57.333 179.334 86 266.001 86c82 0 146.167 -14.667 192.5 -44s69.5 -68 69.5 -116
c0 -68 -38.333 -115.333 -115 -142z" />
    <glyph glyph-name="greater" unicode="&#x3e;" horiz-adv-x="664" 
d="M642 127h-142v-127h-65v127h-416v61l419 427h62v-425h142v-63zM435 190v346l-346 -346h346z" />
    <glyph glyph-name="question" unicode="?" horiz-adv-x="684" 
d="M39 611c72.667 82.667 174.335 123.998 305.002 123.998c91.333 0 162.5 -18.333 213.5 -55s76.5 -86.667 76.5 -150c0 -48 -15.333 -85 -46 -111c-24.667 -20.667 -69.667 -41.667 -135 -63l-52 -17c-17.333 -6.66699 -31.333 -14.667 -42 -24
c-29.333 -25.333 -44 -74.666 -44 -147.999v-23h-67l1 40c1.33301 64 14.166 113.333 38.499 148s64.166 61.334 119.499 80.001c27.333 7.33301 62.333 19.666 105 36.999c32 20 48 48.333 48 85c0 42.667 -19.5 76.334 -58.5 101.001s-93.833 37 -164.5 37
c-94 0 -176 -33 -246 -99zM348.001 -0.00195312h-120v63h120v-63z" />
    <glyph glyph-name="at" unicode="@" horiz-adv-x="814" 
d="M395 -9c-97.333 0 -175.665 30.168 -234.998 90.501s-89 139.833 -89 238.5c0 68 20 130.667 60 188c32.667 46.667 74.334 83.334 125.001 110.001s104 40 160 40c87.333 0 162.666 -26.667 225.999 -80c67.333 -56.667 101 -127.334 101 -212.001
c0 -46.667 -11.667 -89.334 -35 -128.001c-40.667 -67.333 -99 -101 -175 -101c-42 0 -70.667 18.333 -86 55c-30 -23.333 -62.667 -35 -98 -35c-32.667 0 -58.834 11 -78.501 33s-29.5 52 -29.5 90c0 59.333 18.167 109.5 54.5 150.5s81.166 61.5 134.499 61.5
c21.333 0 41.333 -6 60 -18l8 18h64c-44 -140 -66 -225.667 -66 -257c0 -38 16 -57 48 -57c39.333 0 70.666 16.5 93.999 49.5s35 78.167 35 135.5c0 72 -23.833 130.5 -71.5 175.5s-109.5 67.5 -185.5 67.5c-81.333 0 -147.166 -26.167 -197.499 -78.5
s-75.5 -121.5 -75.5 -207.5c0 -184 93.333 -276.333 280 -277v-52h-28zM469.001 383.001c0 48.667 -17.666 73 -52.999 73c-28.667 0 -54.334 -17.667 -77.001 -53c-23.333 -38 -35 -83.667 -35 -137c0 -42.667 17 -64 51 -64c30 0 56.5 17.5 79.5 52.5
s34.5 77.833 34.5 128.5z" />
    <glyph glyph-name="A" unicode="A" horiz-adv-x="870" 
d="M865 0h-75l-99 188h-510l-101 -188h-75l383 724h96zM658 251l-217 410h-9l-218 -410h444z" />
    <glyph glyph-name="B" unicode="B" horiz-adv-x="1006" 
d="M774 371c98.667 -31.333 148.001 -91.333 148.001 -180c0 -58.667 -20.333 -105.167 -61 -139.5s-96.334 -51.5 -167.001 -51.5h-568v724h563c66.667 0 118.5 -16.5 155.5 -49.5s55.5 -78.167 55.5 -135.5c0 -80.667 -42 -136.667 -126 -168zM685.001 399
c42 0 76.667 13 104 39s41 59 41 99c0 36.667 -11.833 66.5 -35.5 89.5s-55.167 34.5 -94.5 34.5h-509v-262h494zM693.001 63c107.333 0 161.001 44.001 161.001 132.001c0 43.333 -14.333 77.666 -43 102.999s-67.334 38 -116.001 38h-504v-273h502z" />
    <glyph glyph-name="C" unicode="C" horiz-adv-x="973" 
d="M894 586l-57.998 -22.999c-78 82 -183.667 123 -317 123c-98.667 0 -181.667 -26.667 -249 -80c-78 -62 -117 -142.667 -117 -242c0 -96 33.667 -173.667 101 -233s155.666 -89 264.999 -89c142 0 247.667 40 317 120l54 -35c-74 -98 -194.667 -147 -362 -147
c-92.667 0 -175.334 19 -248.001 57c-62.667 33.333 -111 78.166 -145 134.499s-51 120.5 -51 192.5c0 116 44.667 210.667 134 284c80.667 66 181 99 301 99c166.667 0 291.667 -53.667 375 -161z" />
    <glyph glyph-name="D" unicode="D" horiz-adv-x="1024" 
d="M557 724c118.667 0 212.167 -33.167 280.5 -99.5s102.5 -156.5 102.5 -270.5c0 -102 -34.167 -186.5 -102.5 -253.5s-153.833 -100.5 -256.5 -100.5h-455v724h431zM586 63c81.333 0 148.667 29 202 87c51.333 56 77 125 77 207c0 90.667 -27.5 164 -82.5 220
s-126.833 84 -215.5 84h-376v-598h395z" />
    <glyph glyph-name="E" unicode="E" horiz-adv-x="871" 
d="M829 0h-703v724h675v-63h-610v-246h424v-63h-424v-289h638v-63z" />
    <glyph glyph-name="F" unicode="F" horiz-adv-x="816" 
d="M801 661h-610v-246h424v-63h-424v-352h-65v724h675v-63z" />
    <glyph glyph-name="G" unicode="G" horiz-adv-x="1038" 
d="M954 360c-7.33301 -96.667 -31.999 -171.668 -73.999 -225.001c-82.667 -104 -202.667 -156 -360 -156c-122 0 -223.333 33.333 -304 100c-88 72.667 -132 167.334 -132 284.001c0 114.667 44.333 208.667 133 282c82 68 183 102 303 102c152 0 273.333 -50.667 364 -152
l-60 -38c-84 86 -185.333 129 -304 129c-101.333 0 -186 -28.333 -254 -85c-74.667 -62 -112 -141.333 -112 -238c0 -96 33.667 -173.667 101 -233s155.666 -89 264.999 -89c94 0 171.333 21.833 232 65.5s101.667 107.167 123 190.5h-384v63h463z" />
    <glyph glyph-name="H" unicode="H" horiz-adv-x="1016" 
d="M890 0h-65v352h-634v-352h-65v724h65v-309h634v309h65v-724z" />
    <glyph glyph-name="I" unicode="I" horiz-adv-x="317" 
d="M191 0h-65v724h65v-724z" />
    <glyph glyph-name="J" unicode="J" horiz-adv-x="734" 
d="M619 225c0 -164 -100.335 -246.002 -301.002 -246.002c-92 0 -162.167 20.167 -210.5 60.5s-72.5 98.833 -72.5 175.5h61c0.666992 -61.333 18.334 -105.666 53.001 -132.999s89.334 -41 164.001 -41c85.333 0 146.833 13.833 184.5 41.5s56.5 74.834 56.5 141.501v500
h65v-499z" />
    <glyph glyph-name="K" unicode="K" horiz-adv-x="881" 
d="M874 0h-78l-357 419l-248 -195v-224h-65v724h65v-426l543 426h95l-341 -266z" />
    <glyph glyph-name="L" unicode="L" horiz-adv-x="755" 
d="M750 0h-624v724h65v-661h559v-63z" />
    <glyph glyph-name="M" unicode="M" horiz-adv-x="1192" 
d="M1066 0h-65v661h-4l-401 -516l-402 516h-3v-661h-65v724h101l369 -483l370 483h100v-724z" />
    <glyph glyph-name="N" unicode="N" horiz-adv-x="1020" 
d="M894 0h-92l-611 661v-661h-65v724h94l609 -661v661h65v-724z" />
    <glyph glyph-name="O" unicode="O" horiz-adv-x="1041" 
d="M957 363c0 -116.667 -44.665 -211.667 -133.998 -285c-80.667 -66 -181.334 -99 -302.001 -99c-121.333 0 -222.333 33 -303 99c-89.333 73.333 -134 168.333 -134 285c0 115.333 45 210 135 284c81.333 66.667 182 100 302 100c119.333 0 219.666 -33.333 300.999 -100
c90 -74 135 -168.667 135 -284zM888.002 363c0 99.333 -39.333 180 -118 242c-68.667 54 -151.667 81 -249 81c-98 0 -181 -27 -249 -81c-78 -62 -117 -142.667 -117 -242c0 -96.667 33.5 -174.5 100.5 -233.5s155.5 -88.5 265.5 -88.5s198.667 29.667 266 89
s101 137 101 233z" />
    <glyph glyph-name="P" unicode="P" horiz-adv-x="913" 
d="M672 724c67.333 0 120.5 -19.332 159.5 -57.999s58.5 -91.334 58.5 -158.001c0 -64.667 -21 -116 -63 -154s-99.333 -57 -172 -57h-464v-297h-65v724h546zM667 360.001c48 0 85.167 13.167 111.5 39.5s39.5 63.5 39.5 111.5c0 100 -58.333 150 -175 150h-452v-301h476z
" />
    <glyph glyph-name="Q" unicode="Q" horiz-adv-x="1051" 
d="M674 1c-50 -14 -99.333 -21.002 -148 -21.002c-122 0 -223.333 33.333 -304 100c-88.667 72.667 -133 167.334 -133 284.001c0 114.667 44.667 209 134 283c81.333 67.333 182.333 101 303 101c120 0 220.667 -33.667 302 -101c89.333 -74 134 -168.333 134 -283
c0 -159.333 -77 -273.666 -231 -342.999l97 -107l-63 -19zM686 69.998c138 54.667 207 152.668 207 294.001c0 97.333 -37.333 176.666 -112 237.999c-69.333 56.667 -154.333 85 -255 85s-185.334 -28.333 -254.001 -85c-74.667 -62 -112 -141.333 -112 -238
c0 -96 33.333 -173.5 100 -232.5s155.334 -88.5 266.001 -88.5c36 0 69.667 3.33301 101 10l-93 107l59 18z" />
    <glyph glyph-name="R" unicode="R" horiz-adv-x="978" 
d="M892 0h-79l-227 297h-395v-297h-65v724h546c66.667 0 119.667 -19.5 159 -58.5s59 -91.5 59 -157.5c0 -62 -18.833 -111.5 -56.5 -148.5s-91.5 -57.833 -161.5 -62.5zM667 360c48 0 85.167 13.167 111.5 39.5s39.5 63.5 39.5 111.5c0 100 -58.333 150 -175 150h-452v-301
h476z" />
    <glyph glyph-name="S" unicode="S" horiz-adv-x="931" 
d="M751 609c-87.333 48 -187.664 72.001 -300.997 72.001c-90 0 -158.833 -12.167 -206.5 -36.5s-71.5 -58.833 -71.5 -103.5c0 -44 23 -75.333 69 -94c40.667 -16.667 109.667 -27 207 -31c83.333 -3.33301 139.666 -6.66602 168.999 -9.99902
c53.333 -5.33301 96 -15 128 -29c70.667 -30.667 106 -84.334 106 -161.001c0 -73.333 -32.167 -130.5 -96.5 -171.5s-156.5 -61.5 -276.5 -61.5c-162.667 0 -295.334 35.667 -398.001 107l38 55c105.333 -67.333 220.666 -101 345.999 -101
c100 0 176.833 14.833 230.5 44.5s80.5 70.834 80.5 123.501c0 49.333 -24.333 84.666 -73 105.999c-43.333 19.333 -117 31.333 -221 36c-76.667 3.33301 -130 6.66602 -160 9.99902c-50 4.66699 -89.667 12.667 -119 24c-70.667 26.667 -106 75 -106 145
c0 65.333 30.333 116.5 91 153.5s147 55.5 259 55.5c151.333 0 268.333 -27.667 351 -83z" />
    <glyph glyph-name="T" unicode="T" horiz-adv-x="767" 
d="M762 661h-346v-661h-65v661h-346v63h757v-63z" />
    <glyph glyph-name="U" unicode="U" horiz-adv-x="1016" 
d="M890 226c0 -73.333 -34 -132.333 -102 -177c-69.333 -46.667 -162.333 -70 -279 -70c-116 0 -208.833 23 -278.5 69s-104.5 105.333 -104.5 178v498h65v-473c0 -139.333 106 -209 318 -209c210.667 0 316 69.667 316 209v473h65v-498z" />
    <glyph glyph-name="V" unicode="V" horiz-adv-x="831" 
d="M826 724l-361 -724h-99l-361 724h76l335 -671l334 671h76z" />
    <glyph glyph-name="W" unicode="W" horiz-adv-x="1086" 
d="M1068 724l-233 -724h-99l-198 667l-188 -667h-100l-232 724h74l206 -668l190 668h101l199 -667l206 667h74z" />
    <glyph glyph-name="X" unicode="X" horiz-adv-x="823" 
d="M798 0h-85l-302 323l-300 -323h-86l345 367l-332 357h86l287 -311l289 311h85l-331 -357z" />
    <glyph glyph-name="Y" unicode="Y" horiz-adv-x="793" 
d="M788 724l-358 -433v-291h-65v291l-360 433h79l312 -368l313 368h79z" />
    <glyph glyph-name="Z" unicode="Z" horiz-adv-x="793" 
d="M758 0h-731v63l606 598h-598v63h696v-63l-620 -598h647v-63z" />
    <glyph glyph-name="bracketleft" unicode="[" horiz-adv-x="372" 
d="M328 -141h-228v934h228v-34h-163v-866h163v-34z" />
    <glyph glyph-name="backslash" unicode="\" horiz-adv-x="505" 
d="M507 -10h-80l-429 734h79z" />
    <glyph glyph-name="bracketright" unicode="]" horiz-adv-x="377" 
d="M272 -141h-227v34h163v866h-163v34h227v-934z" />
    <glyph glyph-name="asciicircum" unicode="^" horiz-adv-x="690" 
d="M107 329c65.333 42.667 143.667 64 235 64c86 0 155.167 -19.167 207.5 -57.5s78.5 -86.833 78.5 -145.5c0 -60 -25 -108.333 -75 -145s-117.667 -55 -203 -55c-134 0 -237.667 36.667 -311 110l54 34c80.667 -54.667 163.667 -82 249 -82c66 0 119 13.333 159 40
c38 26 57 59.333 57 100c0 42 -20.333 76.667 -61 104s-94.667 41 -162 41c-80 0 -157.667 -24.333 -233 -73l-57 48l92 303h446v-63h-405z" />
    <glyph glyph-name="underscore" unicode="_" 
d="M500 -187v-49h-500v49h500z" />
    <glyph glyph-name="grave" unicode="`" 
d="M282 668h-33l-104 139h79z" />
    <glyph glyph-name="a" unicode="a" horiz-adv-x="758" 
d="M753 0h-76l-84 157h-427l-86 -157h-75l331 615h87zM560 220l-179 333h-2l-180 -333h361z" />
    <glyph glyph-name="b" unicode="b" horiz-adv-x="882" 
d="M688 316c74 -32.667 111 -83.001 111 -151.001c0 -50 -17.833 -90 -53.5 -120s-84.167 -45 -145.5 -45h-488v615h484c57.333 0 102.333 -14.5 135 -43.5s49 -67.833 49 -116.5c0 -61.333 -30.667 -107.666 -92 -138.999zM592 342.999c34 0 62.333 10.668 85 32.001
s34 47.666 34 78.999c0 28.667 -9.66699 52.167 -29 70.5s-45 27.5 -77 27.5h-428v-209h415zM599 63c88 0 132 35 132 105c0 34 -11.667 61.167 -35 81.5s-55 30.5 -95 30.5h-424v-217h422z" />
    <glyph glyph-name="c" unicode="c" horiz-adv-x="837" 
d="M772 493l-59 -23c-62 69.333 -151.333 104 -268 104c-90.667 0 -164.334 -25.333 -221.001 -76s-85 -115.667 -85 -195c0 -74 28.5 -135.5 85.5 -184.5s130.5 -73.5 220.5 -73.5c118.667 0 208 34 268 102l55 -34c-67.333 -86 -175 -129 -323 -129
c-105.333 0 -192.333 28 -261 84c-76 62 -114 142.667 -114 242c0 98.667 38.333 178.667 115 240c70.667 56.667 157.334 85 260.001 85c143.333 0 252.333 -47.333 327 -142z" />
    <glyph glyph-name="d" unicode="d" horiz-adv-x="889" 
d="M483 615c102 0 182.667 -28.167 242 -84.5s89 -132.833 89 -229.5c0 -86.667 -29.5 -158.5 -88.5 -215.5s-132.833 -85.5 -221.5 -85.5h-392v615h371zM508 63c39.333 0 76.333 9.33301 111 28s62 43.667 82 75c26 41.333 39 87.333 39 138
c0 74.667 -22.667 134.667 -68 180s-105.333 68 -180 68h-315v-489h331z" />
    <glyph glyph-name="e" unicode="e" horiz-adv-x="760" 
d="M720 0h-608v615h584v-63h-519v-195h361v-63h-361v-231h543v-63z" />
    <glyph glyph-name="f" unicode="f" horiz-adv-x="711" 
d="M696 552h-519v-195h361v-63h-361v-294h-65v615h584v-63z" />
    <glyph glyph-name="g" unicode="g" horiz-adv-x="890" 
d="M820 312c-3.33301 -100.667 -39.002 -180.832 -107.002 -240.499s-157 -89.5 -267 -89.5c-104 0 -191 28.333 -261 85c-76.667 62 -115 142.667 -115 242c0 98 38.667 178.333 116 241c70.667 57.333 157.334 86 260.001 86c130 0 235.667 -44.667 317 -134l-60 -37
c-69.333 72.667 -155 109 -257 109c-90 0 -163.5 -25.667 -220.5 -77s-85.5 -116.333 -85.5 -195c0 -74 28.333 -135.333 85 -184s130.334 -73 221.001 -73c77.333 0 141.333 17.667 192 53s85 85.666 103 150.999h-325v63h404z" />
    <glyph glyph-name="h" unicode="h" horiz-adv-x="884" 
d="M772 0h-65v294h-530v-294h-65v615h65v-258h530v258h65v-615z" />
    <glyph glyph-name="i" unicode="i" horiz-adv-x="290" 
d="M177 0h-65v615h65v-615z" />
    <glyph glyph-name="j" unicode="j" horiz-adv-x="625" 
d="M527 199c0 -140.667 -87.334 -211 -262.001 -211c-163.333 0 -245 69 -245 207h62c0.666992 -52 15.167 -89.5 43.5 -112.5s73.5 -34.5 135.5 -34.5c70.667 0 121.834 11.5 153.501 34.5s47.5 61.5 47.5 115.5v417h65v-416z" />
    <glyph glyph-name="k" unicode="k" horiz-adv-x="773" 
d="M764 0h-80l-302 349l-205 -159v-190h-65v615h65v-351l455 351h97l-297 -228z" />
    <glyph glyph-name="l" unicode="l" horiz-adv-x="658" 
d="M653 0h-541v615h65v-552h476v-63z" />
    <glyph glyph-name="m" unicode="m" horiz-adv-x="1033" 
d="M921 0h-65v548h-2l-337 -430l-338 435h-2v-553h-65v615h91l314 -400l312 400h92v-615z" />
    <glyph glyph-name="n" unicode="n" horiz-adv-x="887" 
d="M775 0h-82l-516 553v-553h-65v615h82l516 -553v553h65v-615z" />
    <glyph glyph-name="o" unicode="o" horiz-adv-x="893" 
d="M823 309c0 -100 -38.3359 -181.001 -115.003 -243.001c-69.333 -56 -156.666 -84 -261.999 -84c-104 0 -191 28.333 -261 85c-76.667 62 -115 142.667 -115 242c0 98 38.667 178.333 116 241c70.667 57.333 157.334 86 260.001 86s189.334 -28.667 260.001 -86
c78 -63.333 117 -143.666 117 -240.999zM752.997 302.999c0 78.667 -28.498 143.5 -85.498 194.5s-130.833 76.5 -221.5 76.5s-164.334 -25.667 -221.001 -77s-85 -116.666 -85 -195.999c0 -74.667 28.167 -136 84.5 -184s130.166 -72 221.499 -72s165.333 24.167 222 72.5
s85 110.166 85 185.499z" />
    <glyph glyph-name="p" unicode="p" horiz-adv-x="791" 
d="M581 615c58.667 0 105.167 -16.667 139.5 -50s51.5 -78.333 51.5 -135c0 -55.333 -18.333 -99.5 -55 -132.5s-86.667 -49.5 -150 -49.5h-390v-248h-65v615h469zM577 311c39.333 0 69.667 10.5 91 31.5s32 50.833 32 89.5c0 80 -47.667 120 -143 120h-380v-241h400z" />
    <glyph glyph-name="q" unicode="q" horiz-adv-x="903" 
d="M574 -1c-38.667 -10.667 -79.667 -16.001 -123 -16.001c-105.333 0 -192.333 28 -261 84c-76.667 62.667 -115 143.334 -115 242.001c0 98 38.667 178.667 116 242c70 57.333 156.667 86 260 86s190.333 -28.667 261 -86c77.333 -62.667 116 -143.334 116 -242.001
c0 -131.333 -64.667 -227.666 -194 -288.999l78 -86l-61 -19zM590 68.999c54 21.333 95.5029 52.499 124.503 93.499s43.5 87.833 43.5 140.5c0 43.333 -7 80.5 -21 111.5s-38.667 61.5 -74 91.5c-54.667 46 -125.334 69 -212.001 69
c-90.667 0 -164.334 -25.667 -221.001 -77s-85 -116.666 -85 -195.999c0 -74.667 28.167 -136.167 84.5 -184.5s130.166 -72.5 221.499 -72.5c30.667 0 57 2.66699 79 8l-80 89l60 17z" />
    <glyph glyph-name="r" unicode="r" horiz-adv-x="850" 
d="M778 0h-79.001l-194 248h-328v-248h-65v615h469c58.667 0 105.167 -16.667 139.5 -50s51.5 -78.333 51.5 -135c0 -51.333 -15.667 -92.833 -47 -124.5s-75.666 -50.5 -132.999 -56.5zM576.999 311c39.333 0 69.667 10.5 91 31.5s32 50.833 32 89.5
c0 80 -47.667 120 -143 120h-380v-241h400z" />
    <glyph glyph-name="s" unicode="s" horiz-adv-x="802" 
d="M649 510c-77.333 40.667 -165.669 61 -265.002 61c-150.667 0 -226 -35.667 -226 -107c0 -38.667 20.333 -65.334 61 -80.001c34.667 -13.333 97.334 -21.666 188.001 -24.999c118.667 -4.66699 201 -18 247 -40c54 -25.333 81 -70 81 -134
c0 -63.333 -27.667 -112.333 -83 -147s-135 -52 -239 -52c-142 0 -257.333 31.333 -346 94l37 53c90.667 -57.333 194 -86 310 -86c78 0 138.5 12 181.5 36s64.5 56 64.5 96c0 42.667 -20.667 72.667 -62 90c-35.333 14.667 -97.666 24 -186.999 28
c-120.667 4.66699 -202.667 16 -246 34c-54.667 21.333 -82 61.666 -82 120.999c0 56.667 26.167 100.834 78.5 132.501s126.833 47.5 223.5 47.5c122 0 222.667 -24.333 302 -73z" />
    <glyph glyph-name="t" unicode="t" horiz-adv-x="663" 
d="M658 552h-294v-552h-65v552h-294v63h653v-63z" />
    <glyph glyph-name="u" unicode="u" horiz-adv-x="869" 
d="M764 201c0 -62.667 -29.667 -113.5 -89 -152.5s-139 -58.5 -239 -58.5c-100.667 0 -181 19.667 -241 59s-90 90 -90 152v414h65v-393c0 -113.333 88.667 -170 266 -170c175.333 0 263 56.667 263 170v393h65v-414z" />
    <glyph glyph-name="v" unicode="v" horiz-adv-x="724" 
d="M719 615l-312 -615h-90l-312 615h74l283 -557l283 557h74z" />
    <glyph glyph-name="w" unicode="w" horiz-adv-x="946" 
d="M926 615l-201 -615h-91l-165 556l-156 -556h-92l-201 615h74l171 -557l158 557h92l167 -556l171 556h73z" />
    <glyph glyph-name="x" unicode="x" horiz-adv-x="690" 
d="M685 0h-86l-254 268l-253 -268h-87l298 312l-287 303h87l242 -257l243 257h86l-286 -303z" />
    <glyph glyph-name="y" unicode="y" horiz-adv-x="697" 
d="M692 615l-310 -368v-247h-65v247l-312 368h80l263 -305l263 305h81z" />
    <glyph glyph-name="z" unicode="z" horiz-adv-x="662" 
d="M647 0h-632v63l508 489h-501v63h602v-63l-520 -489h543v-63z" />
    <glyph glyph-name="braceleft" unicode="{" horiz-adv-x="380" 
d="M305 -141l-4 -0.00195312c-60.667 0 -104.667 10.167 -132 30.5s-41 54.5 -41 102.5v202c0 61.333 -26 105.333 -78 132c52 26.667 78 71 78 133v194c0 93.333 56.333 140 169 140h8v-34c-74.667 0 -112 -39 -112 -117v-121c0 -51.333 -2.33301 -87.666 -7 -108.999
c-8.66699 -43.333 -27.667 -71.333 -57 -84v-3c29.333 -12.667 48.333 -40.667 57 -84c4.66699 -21.333 7 -57.666 7 -108.999v-127c0 -74.667 36.333 -112 109 -112h3v-34z" />
    <glyph glyph-name="bar" unicode="|" horiz-adv-x="756" 
d="M146 252c66.667 80 155 120.001 265 120.001c79.333 0 144.166 -17.333 194.499 -52s75.5 -78 75.5 -130c0 -58.667 -24.833 -106.667 -74.5 -144s-115.167 -56 -196.5 -56c-101.333 0 -182.5 28.833 -243.5 86.5s-91.5 133.167 -91.5 226.5c0 70.667 19 132 57 184
c66.667 91.333 161.667 137 285 137c82.667 0 160.334 -32 233.001 -96l-50 -41c-53.333 50.667 -116.666 76 -189.999 76c-82.667 0 -148.334 -23.333 -197.001 -70s-73 -108.334 -73 -185.001c0 -19.333 2 -38 6 -56zM166 183.001
c27.333 -47.333 60.999 -81.002 100.999 -101.002c38 -20 86.667 -30 146 -30c62 0 110.167 11.833 144.5 35.5s51.5 55.834 51.5 96.501c0 38.667 -18.167 70.334 -54.5 95.001s-84.5 37 -144.5 37c-48.667 0 -94.667 -11.667 -138 -35s-78.666 -56 -105.999 -98z" />
    <glyph glyph-name="braceright" unicode="}" horiz-adv-x="372" 
d="M324 326c-52 -26.667 -78 -70.667 -78 -132v-202c0 -48 -13.5 -82.167 -40.5 -102.5s-71.167 -30.5 -132.5 -30.5h-4v34h3c72.667 0 109 37.333 109 112v127c0 52 2 88.333 6 109c9.33301 42.667 28.666 70.667 57.999 84v3c-29.333 13.333 -48.666 41.333 -57.999 84
c-4 20.667 -6 57 -6 109v121c0 78 -37.333 117 -112 117v34h8c112.667 0 169 -46.667 169 -140v-194c0 -62 26 -106.333 78 -133z" />
    <glyph glyph-name="asciitilde" unicode="~" horiz-adv-x="652" 
d="M608 552l-392 -552h-80l392 552h-500v63h580v-63z" />
    <glyph glyph-name="nonbreakingspace" unicode="&#xa0;" horiz-adv-x="270" 
 />
    <glyph glyph-name="exclamdown" unicode="&#xa1;" horiz-adv-x="320" 
d="M220 661h-120v63h120v-63zM206 0h-91v29l15 551h61z" />
    <glyph glyph-name="cent" unicode="&#xa2;" horiz-adv-x="707" 
d="M630 503l-48.001 -18.001c-49.333 49.333 -109 76 -179 80v-412c70.667 2.66699 130.667 29.334 180 80.001l43 -28c-59.333 -65.333 -133.666 -99 -222.999 -101v-104h-59v104c-84 8.66699 -149.5 36 -196.5 82s-70.5 104 -70.5 174c0 68.667 23.667 126 71 172
s112.666 73.667 195.999 83v97h59v-97c90.667 -6 166.334 -43.333 227.001 -112zM343.999 153.999v411c-66.667 -8.66699 -118.667 -31.5 -156 -68.5s-56 -82.5 -56 -136.5c0 -56.667 18.5 -103.167 55.5 -139.5s89.167 -58.5 156.5 -66.5z" />
    <glyph glyph-name="sterling" unicode="&#xa3;" horiz-adv-x="702" 
d="M645 20c-37.333 -16.667 -71.666 -24.999 -102.999 -24.999c-26 0 -69.167 5.66699 -129.5 17s-107.833 17 -142.5 17c-60 0 -117.667 -14.333 -173 -43l-42 71c74.667 70.667 112 141 112 211c0 21.333 -4.66699 50 -14 86h-111v48h95
c-13.333 43.333 -20 80.666 -20 111.999c0 69.333 24.833 124.333 74.5 165s118.167 61 205.5 61c94.667 0 171.667 -26.667 231 -80l-30 -46c-58.667 46.667 -129.334 70 -212.001 70c-136 0 -204 -56 -204 -168c0 -30 6.66699 -68 20 -114h257v-48h-245
c8 -38 12 -68.333 12 -91c0 -82.667 -27.333 -146.667 -82 -192c41.333 10 78.333 15 111 15c40.667 0 91 -5.33301 151 -16s99.667 -16 119 -16c30.667 0 61 7.33301 91 22z" />
    <glyph glyph-name="currency" unicode="&#xa4;" horiz-adv-x="772" 
d="M691 308c0 -110 -44.335 -197.332 -133.002 -261.999c-51.333 -37.333 -108.666 -56 -171.999 -56c-64 0 -121.667 18.667 -173 56c-88.667 64.667 -133 152 -133 262c0 86.667 29 160 87 220c62 64 135 96 219 96c84.667 0 157.334 -31.667 218.001 -95
c58 -60.667 87 -134.334 87 -221.001zM624.998 308.001c0 70 -22.334 128.667 -67.001 176c-48.667 52 -106 78 -172 78c-65.333 0 -122.666 -26 -171.999 -78c-44.667 -47.333 -67 -106 -67 -176c0 -88.667 34.333 -159 103 -211c40 -30.667 85.333 -46 136 -46
s96 15.333 136 46c68.667 52 103 122.333 103 211z" />
    <glyph glyph-name="yen" unicode="&#xa5;" horiz-adv-x="836" 
d="M807 724l-301 -365h119v-49h-160l-16 -19v-93h176v-49h-176v-149h-65v149h-177v49h177v93l-15 19h-162v49h121l-304 365h79l312 -368l313 368h79z" />
    <glyph glyph-name="brokenbar" unicode="&#xa6;" 
d="M277 699v-370h-53v370h53zM277 199v-370h-53v370h53z" />
    <glyph glyph-name="section" unicode="&#xa7;" horiz-adv-x="834" 
d="M710 252c26.667 -30.667 40.002 -66.668 40.002 -108.001c0 -65.333 -28.667 -116.166 -86 -152.499s-139.333 -54.5 -246 -54.5c-144 0 -262.333 32.333 -355 97l38 55c96.667 -62 203 -93 319 -93c80.667 0 143.667 13 189 39s68 60.333 68 103
c0 48.667 -25.333 81.334 -76 98.001c-36 12.667 -110.333 21.667 -223 27c-108 5.33301 -183 18 -225 38c-49.333 22.667 -74 62.667 -74 120c0 43.333 16.667 81.666 50 114.999c-33.333 26.667 -50 62 -50 106c0 58.667 27 104.5 81 137.5s130.667 49.5 230 49.5
c132 0 235.333 -27.333 310 -82l-41 -46c-82.667 45.333 -173.334 68 -272.001 68c-157.333 0 -236 -39.667 -236 -119c0 -36 18.333 -62.333 55 -79c23.333 -10.667 57.333 -18 102 -22c47.333 -2 94.666 -4.33301 141.999 -7c106.667 -6 182 -20.667 226 -44
c49.333 -26.667 74 -71 74 -133c0 -42 -13.333 -79.667 -40 -113zM651.002 288.999c17.333 21.333 26 44.668 26 70.001c0 68.667 -57 108.667 -171 120c-9.33301 0.666992 -61 3 -155 7c-63.333 2.66699 -115.666 9.33398 -156.999 20.001
c-28.667 -20.667 -43 -45.334 -43 -74.001c0 -56.667 48.667 -91.334 146 -104.001c5.33301 -0.666992 61.666 -3.33398 168.999 -8.00098c73.333 -3.33301 135 -13.666 185 -30.999z" />
    <glyph glyph-name="dieresis" unicode="&#xa8;" 
d="M381 737c0 -13.333 -4.83301 -24.833 -14.5 -34.5s-21.5 -14.5 -35.5 -14.5c-13.333 0 -24.833 4.66699 -34.5 14s-14.5 21 -14.5 35s4.83301 25.833 14.5 35.5s21.167 14.5 34.5 14.5s25 -5 35 -15s15 -21.667 15 -35zM217 737c0 -13.333 -4.83301 -24.833 -14.5 -34.5
s-21.167 -14.5 -34.5 -14.5c-14 0 -25.833 4.83301 -35.5 14.5s-14.5 21.167 -14.5 34.5s5 25 15 35s21.667 15 35 15s24.833 -4.83301 34.5 -14.5s14.5 -21.5 14.5 -35.5z" />
    <glyph glyph-name="copyright" unicode="&#xa9;" horiz-adv-x="833" 
d="M775 354c0 -99.333 -34.334 -183.333 -103.001 -252c-71.333 -71.333 -156.666 -107 -255.999 -107c-97.333 0 -181.333 35.333 -252 106s-106 155 -106 253c0 98.667 35.667 183.667 107 255c69.333 69.333 153 104 251 104c100.667 0 185.667 -34.667 255 -104
s104 -154.333 104 -255zM732.999 354c0 87.333 -30.499 161.832 -91.499 223.499s-136.167 92.5 -225.5 92.5c-86.667 0 -160.334 -30.333 -221.001 -91c-62.667 -62.667 -94 -137.667 -94 -225c0 -86 31 -160 93 -222s136 -93 222 -93c88 0 163.333 31.333 226 94
c60.667 60.667 91 134.334 91 221.001zM588 273.999c-22.667 -93.333 -80.333 -140.001 -173 -140.001c-57.333 0 -103 19.5 -137 58.5s-51 92.167 -51 159.5c0 68.667 17.5 123 52.5 163s81.833 60 140.5 60c86 0 140.333 -43.333 163 -130h-63
c-18 53.333 -50.667 80 -98 80c-83.333 0 -125 -57.333 -125 -172c0 -53.333 11.167 -94.666 33.5 -123.999s52.833 -44 91.5 -44c50.667 0 85 29.667 103 89h63z" />
    <glyph glyph-name="ordfeminine" unicode="&#xaa;" 
d="M505 309h-61l-56 103h-275l-57 -103h-61l224 416h63zM361 464l-110 205l-111 -205h221z" />
    <glyph glyph-name="guillemotleft" unicode="&#xab;" horiz-adv-x="520" 
d="M460 484l-138 -163l136 -162h-76l-141 162l145 163h74zM278 484l-138 -163l136 -162h-76l-141 162l145 163h74z" />
    <glyph glyph-name="logicalnot" unicode="&#xac;" horiz-adv-x="730" 
d="M503 319c52.667 -12.667 93.333 -32.499 122 -59.499s43 -58.5 43 -94.5c0 -56 -26.333 -99.167 -79 -129.5s-129 -45.5 -229 -45.5s-176.333 15.167 -229 45.5s-79 73.5 -79 129.5c0 73.333 55 124.666 165 153.999c-81.333 24 -122 70 -122 138
c0 50.667 23.5 91.167 70.5 121.5s111.5 45.5 193.5 45.5c82.667 0 147.5 -15.167 194.5 -45.5s70.5 -70.833 70.5 -121.5c0 -62.667 -40.333 -108.667 -121 -138zM556.999 457.001c0 33.333 -16.833 59.333 -50.5 78s-82.167 28 -145.5 28s-112 -9.5 -146 -28.5
s-51 -44.833 -51 -77.5c0 -35.333 17.167 -63.166 51.5 -83.499s82.5 -30.5 144.5 -30.5c62.667 0 111.167 10.167 145.5 30.5s51.5 48.166 51.5 83.499zM590.999 165.001c0 38.667 -19.833 68.667 -59.5 90s-96.834 32 -171.501 32c-76 0 -134.333 -10.667 -175 -32
s-61 -51.333 -61 -90c0 -34 20.833 -61.333 62.5 -82s99.5 -31 173.5 -31c74.667 0 131.834 10 171.501 30s59.5 47.667 59.5 83z" />
    <glyph glyph-name="minus" unicode="&#xad;" horiz-adv-x="833" 
d="M709 322v-48h-585v48h585z" />
    <glyph glyph-name="minus" unicode="&#x2212;" horiz-adv-x="833" 
d="M709 322v-48h-585v48h585z" />
    <glyph glyph-name="registered" unicode="&#xae;" horiz-adv-x="379" 
d="M344 571c0 -42 -15.333 -78.167 -46 -108.5s-68 -45.5 -112 -45.5c-42 0 -77.667 15.167 -107 45.5s-44 67.5 -44 111.5c0 40.667 15.167 76 45.5 106s66.5 45 108.5 45c44 0 80.833 -14.833 110.5 -44.5s44.5 -66.167 44.5 -109.5zM321 571
c0 36.667 -12.499 67.5 -37.499 92.5s-56.5 37.5 -94.5 37.5c-36.667 0 -67.5 -12.5 -92.5 -37.5s-37.5 -55.833 -37.5 -92.5s12.667 -67.834 38 -93.501s56 -38.5 92 -38.5c37.333 0 68.666 12.833 93.999 38.5s38 56.834 38 93.501zM260.001 487l-40 0.000976562l-32 69
h-24v-69h-35v167h59c47.333 0 71 -16.333 71 -49c0 -20.667 -12 -35.334 -36 -44.001zM188.001 579.001c22 0 33 8 33 24s-11.667 24 -35 24h-22v-48h24z" />
    <glyph glyph-name="macron" unicode="&#xaf;" 
d="M411 707h-317v47h317v-47z" />
    <glyph glyph-name="macron" unicode="&#x2c9;" 
d="M411 707h-317v47h317v-47z" />
    <glyph glyph-name="degree" unicode="&#xb0;" horiz-adv-x="549" 
d="M456 559c0 -46 -17.833 -86.167 -53.5 -120.5s-78.167 -51.5 -127.5 -51.5s-91.333 16.667 -126 50c-36.667 35.333 -55 76 -55 122c0 46.667 18 87 54 121s78.333 51 127 51c49.333 0 91.333 -16.667 126 -50c36.667 -35.333 55 -76 55 -122zM396 559
c0 34 -12 63.333 -36 88s-52.333 37 -85 37c-33.333 0 -62 -12.167 -86 -36.5s-36 -53.833 -36 -88.5c0 -34 12 -63 36 -87s52.667 -36 86 -36s61.833 12 85.5 36s35.5 53 35.5 87z" />
    <glyph glyph-name="plusminus" unicode="&#xb1;" horiz-adv-x="833" 
d="M441 571v-170h268v-48h-268v-170h-48v170h-269v48h269v170h48zM709 73v-48h-585v48h585z" />
    <glyph glyph-name="twosuperior" unicode="&#xb2;" horiz-adv-x="517" 
d="M476 289l-449.002 0.00195312c2.66699 45.333 16.667 83.666 42 114.999c28 35.333 81 65.666 159 90.999c2.66699 0.666992 28 7.66699 76 21c28.667 8.66699 50.667 17 66 25c30 16 45 37.333 45 64s-13.667 48 -41 64s-65 24 -113 24
c-65.333 0 -125.666 -20 -180.999 -60l-26 29c66.667 44.667 135.667 67 207 67c60.667 0 109.5 -11.5 146.5 -34.5s55.5 -52.5 55.5 -88.5c0 -55.333 -42.667 -95 -128 -119c-34.667 -8.66699 -84 -23.667 -148 -45c-57.333 -24 -94.666 -62.333 -111.999 -115h401v-38z
" />
    <glyph glyph-name="threesuperior" unicode="&#xb3;" horiz-adv-x="529" 
d="M359 515c78.667 -12 118.001 -47.333 118.001 -106c0 -84.667 -79 -127 -237 -127c-95.333 0 -168.666 26 -219.999 78l27 30c44.667 -46.667 109 -70 193 -70c125.333 0 188 31.333 188 94c0 54 -71 81 -213 81h-24v35c8.66699 -0.666992 21.667 -1 39 -1
c117.333 0 176 27.667 176 83c0 25.333 -12.833 45.166 -38.5 59.499s-61.834 21.5 -108.501 21.5c-64 0 -123.333 -17 -178 -51l-26 29c67.333 38.667 134.666 58 201.999 58c62.667 0 111.5 -10.167 146.5 -30.5s52.5 -48.166 52.5 -83.499
c0 -48.667 -32.333 -82 -97 -100z" />
    <glyph glyph-name="acute" unicode="&#xb4;" 
d="M352 807l-104 -139h-33l57 139h80z" />
    <glyph glyph-name="mu" unicode="&#xb5;" horiz-adv-x="542" 
d="M168 520l-60.999 -288.999c-5.33301 -25.333 -8 -48 -8 -68c0 -79.333 36.667 -119 110 -119c84 0 140.667 68 170 204l59 272h68l-80 -376c-7.33301 -34.667 -11 -56.334 -11 -65.001c0 -21.333 11 -32 33 -32c5.33301 0 11.333 0.333008 18 1l-10 -54
c-12.667 -3.33301 -26.667 -5 -42 -5c-44.667 0 -67 23.667 -67 71v7c-28.667 -52.667 -77.334 -79 -146.001 -79c-61.333 0 -105 25.333 -131 76l-56 -272h-68l154 728h68z" />
    <glyph glyph-name="mu" unicode="&#x3bc;" horiz-adv-x="542" 
d="M168 520l-60.999 -288.999c-5.33301 -25.333 -8 -48 -8 -68c0 -79.333 36.667 -119 110 -119c84 0 140.667 68 170 204l59 272h68l-80 -376c-7.33301 -34.667 -11 -56.334 -11 -65.001c0 -21.333 11 -32 33 -32c5.33301 0 11.333 0.333008 18 1l-10 -54
c-12.667 -3.33301 -26.667 -5 -42 -5c-44.667 0 -67 23.667 -67 71v7c-28.667 -52.667 -77.334 -79 -146.001 -79c-61.333 0 -105 25.333 -131 76l-56 -272h-68l154 728h68z" />
    <glyph glyph-name="paragraph" unicode="&#xb6;" horiz-adv-x="907" 
d="M764 -165h-65v466h-154v-466h-65v466h-143c-74 0 -133.667 20.167 -179 60.5s-68 92.166 -68 155.499c0 58.667 22 107.834 66 147.501s100 59.5 168 59.5h440v-889zM699 364v297h-154v-297h154zM480 364v297h-141c-120 0 -180 -49.333 -180 -148
c0 -44.667 15.833 -80.667 47.5 -108s73.5 -41 125.5 -41h148z" />
    <glyph glyph-name="periodcentered" unicode="&#xb7;" horiz-adv-x="320" 
d="M215 292h-120v63h120v-63z" />
    <glyph glyph-name="periodcentered" unicode="&#x2219;" horiz-adv-x="320" 
d="M215 292h-120v63h120v-63z" />
    <glyph glyph-name="cedilla" unicode="&#xb8;" 
d="M254 -51c52.667 0 79.001 -24.667 79.001 -74c0 -25.333 -8.66699 -45.333 -26 -60s-41.333 -22 -72 -22c-28.667 0 -56 5.33301 -82 16l8 20c16 -5.33301 30 -8 42 -8c40 0 60 16 60 48c0 8.66699 -3.16699 16.167 -9.5 22.5s-13.5 9.5 -21.5 9.5
c-10.667 0 -19.334 -4.66699 -26.001 -14l-29 5l52 117h44l-25 -60h6z" />
    <glyph glyph-name="onesuperior" unicode="&#xb9;" horiz-adv-x="226" 
d="M146 289h-43v398l-77 -32v30c30 11.333 55.667 24 77 38h43v-434z" />
    <glyph glyph-name="ordmasculine" unicode="&#xba;" horiz-adv-x="575" 
d="M534 512c0 -61.333 -23.002 -112.332 -69.002 -152.999s-105.333 -61 -178 -61c-71.333 0 -130.166 20 -176.499 60s-69.5 89.667 -69.5 149c0 63.333 22.833 115.666 68.5 156.999s104.834 62 177.501 62c72 0 131.167 -20.5 177.5 -61.5s69.5 -91.833 69.5 -152.5z
M477.998 508.001c0 48.667 -17.833 88.833 -53.5 120.5s-81.5 47.5 -137.5 47.5s-101.667 -15.833 -137 -47.5s-53 -72.167 -53 -121.5c0 -46 17.5 -84 52.5 -114s80.833 -45 137.5 -45c57.333 0 103.5 15 138.5 45s52.5 68.333 52.5 115z" />
    <glyph glyph-name="guillemotright" unicode="&#xbb;" horiz-adv-x="514" 
d="M450 321l-141 -162h-76l136 162l-138 163h74zM268 321l-141 -162h-76l136 162l-138 163h74z" />
    <glyph glyph-name="onequarter" unicode="&#xbc;" horiz-adv-x="975" 
d="M139 318l-41 -0.000976562v371l-73 -29v28c28.667 10.667 53 22.334 73 35.001h41v-405zM695 723.999l-612 -734h-80l613 734h79zM956 84.999h-105v-85h-41v85h-308v36l308 284h41v-285h105v-35zM810 119.999v243l-268 -243h268z" />
    <glyph glyph-name="onehalf" unicode="&#xbd;" horiz-adv-x="977" 
d="M139 318l-41 -0.000976562v371l-73 -29v28c28.667 10.667 53 22.334 73 35.001h41v-405zM695 723.999l-612 -734h-80l613 734h79zM937 -0.000976562h-428c2.66699 42.667 16.5 79.167 41.5 109.5s74.833 57.833 149.5 82.5c33.333 8 78.666 22.333 135.999 43
c28.667 14.667 43 34.667 43 60c0 24.667 -13.167 44.5 -39.5 59.5s-62.166 22.5 -107.499 22.5c-61.333 0 -119 -18.667 -173 -56l-24 27c63.333 42 129 63 197 63c58 0 104.667 -10.833 140 -32.5s53 -49.167 53 -82.5c0 -51.333 -41 -88.333 -123 -111
c-32.667 -8 -79.667 -22 -141 -42c-54.667 -23.333 -90 -59.333 -106 -108h382v-35z" />
    <glyph glyph-name="threequarters" unicode="&#xbe;" horiz-adv-x="1265" 
d="M343 529c74.667 -12 112.002 -45 112.002 -99c0 -79.333 -75.333 -119 -226 -119c-90.667 0 -160.334 24.333 -209.001 73l25 29c42 -44 103.333 -66 184 -66c119.333 0 179 29 179 87c0 51.333 -67.667 77 -203 77h-23v32c8.66699 -0.666992 21 -1 37 -1
c112 0 168 26 168 78c0 50 -46.667 75 -140 75c-60.667 0 -117.334 -16 -170.001 -48l-24 27c63.333 36.667 127.333 55 192 55c60 0 106.667 -9.5 140 -28.5s50 -45.167 50 -78.5c0 -46 -30.667 -77 -92 -93zM985.002 724l-612 -734h-80l613 734h79zM1246 85h-105v-85h-41
v85h-308v36l308 284h41v-285h105v-35zM1100 120v243l-268 -243h268z" />
    <glyph glyph-name="questiondown" unicode="&#xbf;" horiz-adv-x="684" 
d="M456 661h-120v63h120v-63zM645 113c-71.333 -82.667 -173.001 -124.001 -305.001 -124.001c-91.333 0 -162.5 18.333 -213.5 55s-76.5 86.667 -76.5 150c0 48 15.333 85 46 111c24 20 68.667 40.667 134 62c30.667 10 48.334 16 53.001 18
c17.333 6.66699 31.333 14.667 42 24c29.333 25.333 44 76.666 44 153.999v17h67l-1 -40c-1.33301 -64 -14.333 -113.333 -39 -148s-64.667 -61.334 -120 -80.001c-27.333 -7.33301 -62 -19.666 -104 -36.999c-32 -19.333 -48 -47.666 -48 -84.999
c0 -43.333 19.333 -77.166 58 -101.499s93.667 -36.5 165 -36.5c94 0 176 33 246 99z" />
    <glyph glyph-name="Agrave" unicode="&#xc0;" horiz-adv-x="870" 
d="M865 0h-75l-99 188h-510l-101 -188h-75l383 724h96zM658 251l-217 410h-9l-218 -410h444zM467 779h-33l-104 139h79z" />
    <glyph glyph-name="Aacute" unicode="&#xc1;" horiz-adv-x="870" 
d="M865 0h-75l-99 188h-510l-101 -188h-75l383 724h96zM658 251l-217 410h-9l-218 -410h444zM537 918l-104 -139h-33l57 139h80z" />
    <glyph glyph-name="Acircumflex" unicode="&#xc2;" horiz-adv-x="870" 
d="M865 0h-75l-99 188h-510l-101 -188h-75l383 724h96zM658 251l-217 410h-9l-218 -410h444zM596 780h-66l-97 105l-98 -105h-66l128 139h76z" />
    <glyph glyph-name="Atilde" unicode="&#xc3;" horiz-adv-x="870" 
d="M865 0h-75l-99 188h-510l-101 -188h-75l383 724h96zM658 251l-217 410h-9l-218 -410h444zM581 862c-26 -44 -55.6689 -66 -89.002 -66c-18 0 -41.167 6.16699 -69.5 18.5s-47.166 18.5 -56.499 18.5c-22 0 -41.333 -13.333 -58 -40l-33 25c33.333 42.667 62.333 64 87 64
c15.333 0 37.333 -6.33301 66 -19s49.667 -19 63 -19c20.667 0 39.334 13.667 56.001 41z" />
    <glyph glyph-name="Adieresis" unicode="&#xc4;" horiz-adv-x="870" 
d="M865 0h-75l-99 188h-510l-101 -188h-75l383 724h96zM658 251l-217 410h-9l-218 -410h444zM566 848c0 -13.333 -4.83301 -24.833 -14.5 -34.5s-21.5 -14.5 -35.5 -14.5c-13.333 0 -24.833 4.66699 -34.5 14s-14.5 21 -14.5 35s4.83301 25.833 14.5 35.5
s21.167 14.5 34.5 14.5s25 -5 35 -15s15 -21.667 15 -35zM402 848c0 -13.333 -4.83301 -24.833 -14.5 -34.5s-21.167 -14.5 -34.5 -14.5c-14 0 -25.833 4.83301 -35.5 14.5s-14.5 21.167 -14.5 34.5s5 25 15 35s21.667 15 35 15s24.833 -4.83301 34.5 -14.5
s14.5 -21.5 14.5 -35.5z" />
    <glyph glyph-name="Aring" unicode="&#xc5;" horiz-adv-x="950" 
d="M574 848c0 -22 -9.5 -40.667 -28.5 -56s-42.5 -23 -70.5 -23s-51.5 7.66699 -70.5 23s-28.5 34 -28.5 56s9.5 40.667 28.5 56s42.5 23 70.5 23s51.5 -7.66699 70.5 -23s28.5 -34 28.5 -56zM905 0h-75l-99 188h-510l-101 -188h-75l383 724h96zM536 848
c0 12.667 -5.66699 23.667 -17 33s-26 14 -44 14s-32.5 -4.5 -43.5 -13.5s-16.5 -20.167 -16.5 -33.5s5.5 -24.333 16.5 -33s25.5 -13 43.5 -13c18.667 0 33.5 4.5 44.5 13.5s16.5 19.833 16.5 32.5zM698 251l-217 410h-9l-218 -410h444z" />
    <glyph glyph-name="AE" unicode="&#xc6;" horiz-adv-x="1294" 
d="M1252 0h-703v188h-343l-129 -188h-72l494 724h725v-63h-610v-246h424v-63h-424v-289h638v-63zM549 251v410h-21l-279 -410h300z" />
    <glyph glyph-name="Ccedilla" unicode="&#xc7;" horiz-adv-x="973" 
d="M894 586l-57.999 -22.998c-78 82 -183.667 123 -317 123c-98.667 0 -181.667 -26.667 -249 -80c-78 -62 -117 -142.667 -117 -242c0 -96 33.667 -173.667 101 -233s155.666 -89 264.999 -89c138.667 0 244.334 40 317.001 120l54 -35c-74 -98 -197 -147 -369 -147
l-13 -31h6c52.667 0 79 -24.667 79 -74c0 -25.333 -8.66699 -45.333 -26 -60s-41.333 -22 -72 -22c-28.667 0 -56 5.33301 -82 16l8 20c16 -5.33301 30 -8 42 -8c40 0 60 16 60 48c0 21.333 -10.333 32 -31 32c-10.667 0 -19.334 -4.66699 -26.001 -14l-29 5l40 89
c-124 13.333 -220.5 54.166 -289.5 122.499s-103.5 155.166 -103.5 260.499c0 116 44.667 210.667 134 284c80.667 66 181 99 301 99c164 0 289 -53.667 375 -161z" />
    <glyph glyph-name="Egrave" unicode="&#xc8;" horiz-adv-x="871" 
d="M829 0h-703v724h675v-63h-610v-246h424v-63h-424v-289h638v-63zM503 779h-33l-104 139h79z" />
    <glyph glyph-name="Eacute" unicode="&#xc9;" horiz-adv-x="871" 
d="M829 0h-703v724h675v-63h-610v-246h424v-63h-424v-289h638v-63zM573 918l-104 -139h-33l57 139h80z" />
    <glyph glyph-name="Ecircumflex" unicode="&#xca;" horiz-adv-x="871" 
d="M829 0h-703v724h675v-63h-610v-246h424v-63h-424v-289h638v-63zM632 780h-66l-97 105l-98 -105h-66l128 139h76z" />
    <glyph glyph-name="Edieresis" unicode="&#xcb;" horiz-adv-x="871" 
d="M829 0h-703v724h675v-63h-610v-246h424v-63h-424v-289h638v-63zM602 848c0 -13.333 -4.83301 -24.833 -14.5 -34.5s-21.5 -14.5 -35.5 -14.5c-13.333 0 -24.833 4.66699 -34.5 14s-14.5 21 -14.5 35s4.83301 25.833 14.5 35.5s21.167 14.5 34.5 14.5s25 -5 35 -15
s15 -21.667 15 -35zM438 848c0 -13.333 -4.83301 -24.833 -14.5 -34.5s-21.167 -14.5 -34.5 -14.5c-14 0 -25.833 4.83301 -35.5 14.5s-14.5 21.167 -14.5 34.5s5 25 15 35s21.667 15 35 15s24.833 -4.83301 34.5 -14.5s14.5 -21.5 14.5 -35.5z" />
    <glyph glyph-name="Igrave" unicode="&#xcc;" horiz-adv-x="317" 
d="M191 0h-65v724h65v-724zM191 779h-33l-104 139h79z" />
    <glyph glyph-name="Iacute" unicode="&#xcd;" horiz-adv-x="317" 
d="M191 0h-65v724h65v-724zM261 918l-104 -139h-33l57 139h80z" />
    <glyph glyph-name="Icircumflex" unicode="&#xce;" horiz-adv-x="317" 
d="M191 0h-65v724h65v-724zM320 780h-66l-97 105l-98 -105h-66l128 139h76z" />
    <glyph glyph-name="Idieresis" unicode="&#xcf;" horiz-adv-x="317" 
d="M191 0h-65v724h65v-724zM290 848c0 -13.333 -4.83301 -24.833 -14.5 -34.5s-21.5 -14.5 -35.5 -14.5c-13.333 0 -24.833 4.66699 -34.5 14s-14.5 21 -14.5 35s4.83301 25.833 14.5 35.5s21.167 14.5 34.5 14.5s25 -5 35 -15s15 -21.667 15 -35zM126 848
c0 -13.333 -4.83301 -24.833 -14.5 -34.5s-21.167 -14.5 -34.5 -14.5c-14 0 -25.833 4.83301 -35.5 14.5s-14.5 21.167 -14.5 34.5s5 25 15 35s21.667 15 35 15s24.833 -4.83301 34.5 -14.5s14.5 -21.5 14.5 -35.5z" />
    <glyph glyph-name="Eth" unicode="&#xd0;" horiz-adv-x="1024" 
d="M557 724c118.667 0 212.167 -33.167 280.5 -99.5s102.5 -156.5 102.5 -270.5c0 -102 -34.167 -186.5 -102.5 -253.5s-153.833 -100.5 -256.5 -100.5h-455v332h-67v63h67v329h431zM586 63c82 0 149 28.668 201 86.001s78 126.666 78 207.999c0 90.667 -27.5 164 -82.5 220
s-126.833 84 -215.5 84h-376v-266h367v-63h-367v-269h395z" />
    <glyph glyph-name="Ntilde" unicode="&#xd1;" horiz-adv-x="1020" 
d="M894 0h-92l-611 661v-661h-65v724h94l609 -661v661h65v-724zM656 862c-26 -44 -55.6689 -66 -89.002 -66c-18 0 -41.167 6.16699 -69.5 18.5s-47.166 18.5 -56.499 18.5c-22 0 -41.333 -13.333 -58 -40l-33 25c33.333 42.667 62.333 64 87 64
c15.333 0 37.333 -6.33301 66 -19s49.667 -19 63 -19c20.667 0 39.334 13.667 56.001 41z" />
    <glyph glyph-name="Ograve" unicode="&#xd2;" horiz-adv-x="1041" 
d="M957 363c0 -116.667 -44.665 -211.667 -133.998 -285c-80.667 -66 -181.334 -99 -302.001 -99c-121.333 0 -222.333 33 -303 99c-89.333 73.333 -134 168.333 -134 285c0 115.333 45 210 135 284c81.333 66.667 182 100 302 100c119.333 0 219.666 -33.333 300.999 -100
c90 -74 135 -168.667 135 -284zM888.002 363c0 99.333 -39.333 180 -118 242c-68.667 54 -151.667 81 -249 81c-98 0 -181 -27 -249 -81c-78 -62 -117 -142.667 -117 -242c0 -96.667 33.5 -174.5 100.5 -233.5s155.5 -88.5 265.5 -88.5s198.667 29.667 266 89
s101 137 101 233zM553.002 779h-33l-104 139h79z" />
    <glyph glyph-name="Oacute" unicode="&#xd3;" horiz-adv-x="1041" 
d="M957 363c0 -116.667 -44.665 -211.667 -133.998 -285c-80.667 -66 -181.334 -99 -302.001 -99c-121.333 0 -222.333 33 -303 99c-89.333 73.333 -134 168.333 -134 285c0 115.333 45 210 135 284c81.333 66.667 182 100 302 100c119.333 0 219.666 -33.333 300.999 -100
c90 -74 135 -168.667 135 -284zM888.002 363c0 99.333 -39.333 180 -118 242c-68.667 54 -151.667 81 -249 81c-98 0 -181 -27 -249 -81c-78 -62 -117 -142.667 -117 -242c0 -96.667 33.5 -174.5 100.5 -233.5s155.5 -88.5 265.5 -88.5s198.667 29.667 266 89
s101 137 101 233zM623.002 918l-104 -139h-33l57 139h80z" />
    <glyph glyph-name="Ocircumflex" unicode="&#xd4;" horiz-adv-x="1041" 
d="M957 363c0 -116.667 -44.665 -211.667 -133.998 -285c-80.667 -66 -181.334 -99 -302.001 -99c-121.333 0 -222.333 33 -303 99c-89.333 73.333 -134 168.333 -134 285c0 115.333 45 210 135 284c81.333 66.667 182 100 302 100c119.333 0 219.666 -33.333 300.999 -100
c90 -74 135 -168.667 135 -284zM888.002 363c0 99.333 -39.333 180 -118 242c-68.667 54 -151.667 81 -249 81c-98 0 -181 -27 -249 -81c-78 -62 -117 -142.667 -117 -242c0 -96.667 33.5 -174.5 100.5 -233.5s155.5 -88.5 265.5 -88.5s198.667 29.667 266 89
s101 137 101 233zM682.002 780h-66l-97 105l-98 -105h-66l128 139h76z" />
    <glyph glyph-name="Otilde" unicode="&#xd5;" horiz-adv-x="1041" 
d="M957 363c0 -116.667 -44.665 -211.667 -133.998 -285c-80.667 -66 -181.334 -99 -302.001 -99c-121.333 0 -222.333 33 -303 99c-89.333 73.333 -134 168.333 -134 285c0 115.333 45 210 135 284c81.333 66.667 182 100 302 100c119.333 0 219.666 -33.333 300.999 -100
c90 -74 135 -168.667 135 -284zM888.002 363c0 99.333 -39.333 180 -118 242c-68.667 54 -151.667 81 -249 81c-98 0 -181 -27 -249 -81c-78 -62 -117 -142.667 -117 -242c0 -96.667 33.5 -174.5 100.5 -233.5s155.5 -88.5 265.5 -88.5s198.667 29.667 266 89
s101 137 101 233zM667.002 862c-26 -44 -55.6689 -66 -89.002 -66c-18 0 -41.167 6.16699 -69.5 18.5s-47.166 18.5 -56.499 18.5c-22 0 -41.333 -13.333 -58 -40l-33 25c33.333 42.667 62.333 64 87 64c15.333 0 37.333 -6.33301 66 -19s49.667 -19 63 -19
c20.667 0 39.334 13.667 56.001 41z" />
    <glyph glyph-name="Odieresis" unicode="&#xd6;" horiz-adv-x="1041" 
d="M957 363c0 -116.667 -44.665 -211.667 -133.998 -285c-80.667 -66 -181.334 -99 -302.001 -99c-121.333 0 -222.333 33 -303 99c-89.333 73.333 -134 168.333 -134 285c0 115.333 45 210 135 284c81.333 66.667 182 100 302 100c119.333 0 219.666 -33.333 300.999 -100
c90 -74 135 -168.667 135 -284zM888.002 363c0 99.333 -39.333 180 -118 242c-68.667 54 -151.667 81 -249 81c-98 0 -181 -27 -249 -81c-78 -62 -117 -142.667 -117 -242c0 -96.667 33.5 -174.5 100.5 -233.5s155.5 -88.5 265.5 -88.5s198.667 29.667 266 89
s101 137 101 233zM652.002 848c0 -13.333 -4.83301 -24.833 -14.5 -34.5s-21.5 -14.5 -35.5 -14.5c-13.333 0 -24.833 4.66699 -34.5 14s-14.5 21 -14.5 35s4.83301 25.833 14.5 35.5s21.167 14.5 34.5 14.5s25 -5 35 -15s15 -21.667 15 -35zM488.002 848
c0 -13.333 -4.83301 -24.833 -14.5 -34.5s-21.167 -14.5 -34.5 -14.5c-14 0 -25.833 4.83301 -35.5 14.5s-14.5 21.167 -14.5 34.5s5 25 15 35s21.667 15 35 15s24.833 -4.83301 34.5 -14.5s14.5 -21.5 14.5 -35.5z" />
    <glyph glyph-name="multiply" unicode="&#xd7;" horiz-adv-x="833" 
d="M418 332l235 235l34 -34l-235 -235l235 -235l-34 -34l-235 235l-235 -235l-34 34l235 235l-235 235l34 34z" />
    <glyph glyph-name="Oslash" unicode="&#xd8;" horiz-adv-x="1041" 
d="M795 668c108 -83.333 162 -185 162 -305c0 -116.667 -44.667 -211.667 -134 -285c-80.667 -66 -181.334 -99 -302.001 -99c-84 0 -165 19.667 -243 59l-67 -82h-72l92 112c-98 80.667 -147 179 -147 295c0 115.333 45 210 135 284c80.667 66.667 181.334 100 302.001 100
c76 0 151 -17 225 -51l61 75h72zM319 88c63.333 -31.333 130.667 -47.001 202 -47.001c110 0 198.667 29.667 266 89s101 137 101 233c0 100.667 -45 185.334 -135 254.001zM704.001 644.999c-62.667 27.333 -123.667 41.001 -183 41.001c-98 0 -181 -27 -249 -81
c-78 -62 -117 -142.667 -117 -242c0 -98.667 38.667 -180.334 116 -245.001z" />
    <glyph glyph-name="Ugrave" unicode="&#xd9;" horiz-adv-x="1016" 
d="M890 226c0 -73.333 -34 -132.333 -102 -177c-69.333 -46.667 -162.333 -70 -279 -70c-116 0 -208.833 23 -278.5 69s-104.5 105.333 -104.5 178v498h65v-473c0 -139.333 106 -209 318 -209c210.667 0 316 69.667 316 209v473h65v-498zM540 779h-33l-104 139h79z" />
    <glyph glyph-name="Uacute" unicode="&#xda;" horiz-adv-x="1016" 
d="M890 226c0 -73.333 -34 -132.333 -102 -177c-69.333 -46.667 -162.333 -70 -279 -70c-116 0 -208.833 23 -278.5 69s-104.5 105.333 -104.5 178v498h65v-473c0 -139.333 106 -209 318 -209c210.667 0 316 69.667 316 209v473h65v-498zM610 918l-104 -139h-33l57 139h80z
" />
    <glyph glyph-name="Ucircumflex" unicode="&#xdb;" horiz-adv-x="1016" 
d="M890 226c0 -73.333 -34 -132.333 -102 -177c-69.333 -46.667 -162.333 -70 -279 -70c-116 0 -208.833 23 -278.5 69s-104.5 105.333 -104.5 178v498h65v-473c0 -139.333 106 -209 318 -209c210.667 0 316 69.667 316 209v473h65v-498zM669 780h-66l-97 105l-98 -105h-66
l128 139h76z" />
    <glyph glyph-name="Udieresis" unicode="&#xdc;" horiz-adv-x="1016" 
d="M890 226c0 -73.333 -34 -132.333 -102 -177c-69.333 -46.667 -162.333 -70 -279 -70c-116 0 -208.833 23 -278.5 69s-104.5 105.333 -104.5 178v498h65v-473c0 -139.333 106 -209 318 -209c210.667 0 316 69.667 316 209v473h65v-498zM639 848
c0 -13.333 -4.83301 -24.833 -14.5 -34.5s-21.5 -14.5 -35.5 -14.5c-13.333 0 -24.833 4.66699 -34.5 14s-14.5 21 -14.5 35s4.83301 25.833 14.5 35.5s21.167 14.5 34.5 14.5s25 -5 35 -15s15 -21.667 15 -35zM475 848c0 -13.333 -4.83301 -24.833 -14.5 -34.5
s-21.167 -14.5 -34.5 -14.5c-14 0 -25.833 4.83301 -35.5 14.5s-14.5 21.167 -14.5 34.5s5 25 15 35s21.667 15 35 15s24.833 -4.83301 34.5 -14.5s14.5 -21.5 14.5 -35.5z" />
    <glyph glyph-name="Yacute" unicode="&#xdd;" horiz-adv-x="793" 
d="M788 724l-358 -433v-291h-65v291l-360 433h79l312 -368l313 368h79zM499 918l-104 -139h-33l57 139h80z" />
    <glyph glyph-name="Thorn" unicode="&#xde;" horiz-adv-x="913" 
d="M672 615c66.667 0 119.667 -19.5 159 -58.5s59 -91.5 59 -157.5c0 -64.667 -21 -116 -63 -154s-99.333 -57 -172 -57h-464v-188h-65v724h65v-109h481zM667 251c48 0 85.167 13.167 111.5 39.5s39.5 63.5 39.5 111.5c0 100 -58.333 150 -175 150h-452v-301h476z" />
    <glyph glyph-name="germandbls" unicode="&#xdf;" horiz-adv-x="1559" 
d="M1406 510c-77.333 40.667 -165.668 61 -265.001 61c-150.667 0 -226 -35.667 -226 -107c0 -38.667 20.333 -65.667 61 -81c34.667 -12.667 97.334 -20.667 188.001 -24c118 -4 200.333 -17 247 -39c54 -26 81 -71 81 -135c0 -63.333 -27.667 -112.333 -83 -147
s-135 -52 -239 -52c-142.667 0 -258 31.333 -346 94l37 53c89.333 -57.333 192.666 -86 309.999 -86c78 0 138.5 12 181.5 36s64.5 56 64.5 96c0 42.667 -20.667 72.667 -62 90c-35.333 14.667 -97.666 24 -186.999 28c-120.667 4.66699 -202.667 16 -246 34
c-54.667 21.333 -82 61.666 -82 120.999c0 56.667 26.167 100.834 78.5 132.501s126.833 47.5 223.5 47.5c122 0 222.667 -24.333 302 -73zM648.998 510c-77.333 40.667 -165.669 61 -265.002 61c-150.667 0 -226 -35.667 -226 -107c0 -38.667 20.333 -65.334 61 -80.001
c34.667 -13.333 97.334 -21.666 188.001 -24.999c118.667 -4.66699 201 -18 247 -40c54 -25.333 81 -70 81 -134c0 -63.333 -27.667 -112.333 -83 -147s-135 -52 -239 -52c-142 0 -257.333 31.333 -346 94l37 53c90.667 -57.333 194 -86 310 -86c78 0 138.5 12 181.5 36
s64.5 56 64.5 96c0 42.667 -20.667 72.667 -62 90c-35.333 14.667 -97.666 24 -186.999 28c-120.667 4.66699 -202.667 16 -246 34c-54.667 21.333 -82 61.666 -82 120.999c0 56.667 26.167 100.834 78.5 132.501s126.833 47.5 223.5 47.5c122 0 222.667 -24.333 302 -73z
" />
    <glyph glyph-name="agrave" unicode="&#xe0;" horiz-adv-x="758" 
d="M753 0h-76l-84 157h-427l-86 -157h-75l331 615h87zM560 220l-179 333h-2l-180 -333h361zM411 668h-33l-104 139h79z" />
    <glyph glyph-name="aacute" unicode="&#xe1;" horiz-adv-x="758" 
d="M753 0h-76l-84 157h-427l-86 -157h-75l331 615h87zM560 220l-179 333h-2l-180 -333h361zM481 807l-104 -139h-33l57 139h80z" />
    <glyph glyph-name="acircumflex" unicode="&#xe2;" horiz-adv-x="758" 
d="M753 0h-76l-84 157h-427l-86 -157h-75l331 615h87zM560 220l-179 333h-2l-180 -333h361zM540 669h-66l-97 105l-98 -105h-66l128 139h76z" />
    <glyph glyph-name="atilde" unicode="&#xe3;" horiz-adv-x="758" 
d="M753 0h-76l-84 157h-427l-86 -157h-75l331 615h87zM560 220l-179 333h-2l-180 -333h361zM525 751c-26 -44 -55.6689 -66 -89.002 -66c-18 0 -41.167 6.16699 -69.5 18.5s-47.166 18.5 -56.499 18.5c-22 0 -41.333 -13.333 -58 -40l-33 25c33.333 42.667 62.333 64 87 64
c15.333 0 37.333 -6.33301 66 -19s49.667 -19 63 -19c20.667 0 39.334 13.667 56.001 41z" />
    <glyph glyph-name="adieresis" unicode="&#xe4;" horiz-adv-x="758" 
d="M753 0h-76l-84 157h-427l-86 -157h-75l331 615h87zM560 220l-179 333h-2l-180 -333h361zM510 737c0 -13.333 -4.83301 -24.833 -14.5 -34.5s-21.5 -14.5 -35.5 -14.5c-13.333 0 -24.833 4.66699 -34.5 14s-14.5 21 -14.5 35s4.83301 25.833 14.5 35.5
s21.167 14.5 34.5 14.5s25 -5 35 -15s15 -21.667 15 -35zM346 737c0 -13.333 -4.83301 -24.833 -14.5 -34.5s-21.167 -14.5 -34.5 -14.5c-14 0 -25.833 4.83301 -35.5 14.5s-14.5 21.167 -14.5 34.5s5 25 15 35s21.667 15 35 15s24.833 -4.83301 34.5 -14.5
s14.5 -21.5 14.5 -35.5z" />
    <glyph glyph-name="aring" unicode="&#xe5;" horiz-adv-x="758" 
d="M480 744c0 -22 -9.5 -40.667 -28.5 -56s-42.5 -23 -70.5 -23s-51.5 7.66699 -70.5 23s-28.5 34 -28.5 56s9.5 40.667 28.5 56s42.5 23 70.5 23s51.5 -7.66699 70.5 -23s28.5 -34 28.5 -56zM753 0h-76l-84 157h-427l-86 -157h-75l331 615h87zM442 744
c0 13.333 -5.66699 24.5 -17 33.5s-26 13.5 -44 13.5s-32.5 -4.5 -43.5 -13.5s-16.5 -20.167 -16.5 -33.5s5.5 -24.333 16.5 -33s25.5 -13 43.5 -13s32.667 4.5 44 13.5s17 19.833 17 32.5zM560 220l-179 333h-2l-180 -333h361z" />
    <glyph glyph-name="ae" unicode="&#xe6;" horiz-adv-x="1119" 
d="M1079 0h-608v157h-283l-110 -157h-73l426 615h624v-63h-519v-195h361v-63h-361v-231h543v-63zM471 220v332h-10l-230 -332h240z" />
    <glyph glyph-name="ccedilla" unicode="&#xe7;" horiz-adv-x="837" 
d="M772 493l-58.999 -23.002c-60.667 69.333 -150 104 -268 104c-90.667 0 -164.334 -25.333 -221.001 -76s-85 -115.667 -85 -195c0 -74 28.5 -135.5 85.5 -184.5s130.5 -73.5 220.5 -73.5c119.333 0 208.666 34 267.999 102l55 -34
c-69.333 -84.667 -172.666 -127.667 -309.999 -129l-15 -35h6c52.667 0 79 -24.667 79 -74c0 -25.333 -8.66699 -45.333 -26 -60s-41.333 -22 -72 -22c-28.667 0 -56 5.33301 -82 16l8 20c16 -5.33301 30 -8 42 -8c40 0 60 16 60 48c0 8.66699 -3.16699 16.167 -9.5 22.5
s-13.5 9.5 -21.5 9.5c-10.667 0 -19.334 -4.66699 -26.001 -14l-29 5l41 93c-108 10.667 -192.167 44.834 -252.5 102.501s-90.5 131.834 -90.5 222.501c0 98.667 38.333 178.667 115 240c70.667 56.667 157.334 85 260.001 85c140.667 0 249.667 -47.333 327 -142z" />
    <glyph glyph-name="egrave" unicode="&#xe8;" horiz-adv-x="760" 
d="M720 0h-608v615h584v-63h-519v-195h361v-63h-361v-231h543v-63zM432 668h-33l-104 139h79z" />
    <glyph glyph-name="eacute" unicode="&#xe9;" horiz-adv-x="760" 
d="M720 0h-608v615h584v-63h-519v-195h361v-63h-361v-231h543v-63zM502 807l-104 -139h-33l57 139h80z" />
    <glyph glyph-name="ecircumflex" unicode="&#xea;" horiz-adv-x="760" 
d="M720 0h-608v615h584v-63h-519v-195h361v-63h-361v-231h543v-63zM561 669h-66l-97 105l-98 -105h-66l128 139h76z" />
    <glyph glyph-name="edieresis" unicode="&#xeb;" horiz-adv-x="760" 
d="M720 0h-608v615h584v-63h-519v-195h361v-63h-361v-231h543v-63zM531 737c0 -13.333 -4.83301 -24.833 -14.5 -34.5s-21.5 -14.5 -35.5 -14.5c-13.333 0 -24.833 4.66699 -34.5 14s-14.5 21 -14.5 35s4.83301 25.833 14.5 35.5s21.167 14.5 34.5 14.5s25 -5 35 -15
s15 -21.667 15 -35zM367 737c0 -13.333 -4.83301 -24.833 -14.5 -34.5s-21.167 -14.5 -34.5 -14.5c-14 0 -25.833 4.83301 -35.5 14.5s-14.5 21.167 -14.5 34.5s5 25 15 35s21.667 15 35 15s24.833 -4.83301 34.5 -14.5s14.5 -21.5 14.5 -35.5z" />
    <glyph glyph-name="igrave" unicode="&#xec;" horiz-adv-x="290" 
d="M177 0h-65v615h65v-615zM177 668h-33l-104 139h79z" />
    <glyph glyph-name="iacute" unicode="&#xed;" horiz-adv-x="290" 
d="M177 0h-65v615h65v-615zM247 807l-104 -139h-33l57 139h80z" />
    <glyph glyph-name="icircumflex" unicode="&#xee;" horiz-adv-x="290" 
d="M177 0h-65v615h65v-615zM306 669h-66l-97 105l-98 -105h-66l128 139h76z" />
    <glyph glyph-name="idieresis" unicode="&#xef;" horiz-adv-x="290" 
d="M177 0h-65v615h65v-615zM276 737c0 -13.333 -4.83301 -24.833 -14.5 -34.5s-21.5 -14.5 -35.5 -14.5c-13.333 0 -24.833 4.66699 -34.5 14s-14.5 21 -14.5 35s4.83301 25.833 14.5 35.5s21.167 14.5 34.5 14.5s25 -5 35 -15s15 -21.667 15 -35zM112 737
c0 -13.333 -4.83301 -24.833 -14.5 -34.5s-21.167 -14.5 -34.5 -14.5c-14 0 -25.833 4.83301 -35.5 14.5s-14.5 21.167 -14.5 34.5s5 25 15 35s21.667 15 35 15s24.833 -4.83301 34.5 -14.5s14.5 -21.5 14.5 -35.5z" />
    <glyph glyph-name="eth" unicode="&#xf0;" horiz-adv-x="889" 
d="M482 615c102 0 182.667 -28.167 242 -84.5s89 -132.833 89 -229.5c0 -87.333 -29.667 -159.333 -89 -216s-133 -85 -221 -85h-392v277h-57v63h57v275h371zM507 63c40 0 77.333 9.16797 112 27.501s61.667 43.166 81 74.499c26 42 39 88.333 39 139
c0 74 -22.667 133.833 -68 179.5s-105.333 68.5 -180 68.5h-315v-212h312v-63h-312v-214h331z" />
    <glyph glyph-name="ntilde" unicode="&#xf1;" horiz-adv-x="887" 
d="M775 0h-82l-516 553v-553h-65v615h82l516 -553v553h65v-615zM590 751c-26 -44 -55.6689 -66 -89.002 -66c-18 0 -41.167 6.16699 -69.5 18.5s-47.166 18.5 -56.499 18.5c-22 0 -41.333 -13.333 -58 -40l-33 25c33.333 42.667 62.333 64 87 64
c15.333 0 37.333 -6.33301 66 -19s49.667 -19 63 -19c20.667 0 39.334 13.667 56.001 41z" />
    <glyph glyph-name="ograve" unicode="&#xf2;" horiz-adv-x="893" 
d="M823 309c0 -100 -38.3359 -181.001 -115.003 -243.001c-69.333 -56 -156.666 -84 -261.999 -84c-104 0 -191 28.333 -261 85c-76.667 62 -115 142.667 -115 242c0 98 38.667 178.333 116 241c70.667 57.333 157.334 86 260.001 86s189.334 -28.667 260.001 -86
c78 -63.333 117 -143.666 117 -240.999zM752.997 302.999c0 78.667 -28.498 143.5 -85.498 194.5s-130.833 76.5 -221.5 76.5s-164.334 -25.667 -221.001 -77s-85 -116.666 -85 -195.999c0 -74.667 28.167 -136 84.5 -184s130.166 -72 221.499 -72s165.333 24.167 222 72.5
s85 110.166 85 185.499zM478.999 667.999h-33l-104 139h79z" />
    <glyph glyph-name="oacute" unicode="&#xf3;" horiz-adv-x="893" 
d="M823 309c0 -100 -38.3359 -181.001 -115.003 -243.001c-69.333 -56 -156.666 -84 -261.999 -84c-104 0 -191 28.333 -261 85c-76.667 62 -115 142.667 -115 242c0 98 38.667 178.333 116 241c70.667 57.333 157.334 86 260.001 86s189.334 -28.667 260.001 -86
c78 -63.333 117 -143.666 117 -240.999zM752.997 302.999c0 78.667 -28.498 143.5 -85.498 194.5s-130.833 76.5 -221.5 76.5s-164.334 -25.667 -221.001 -77s-85 -116.666 -85 -195.999c0 -74.667 28.167 -136 84.5 -184s130.166 -72 221.499 -72s165.333 24.167 222 72.5
s85 110.166 85 185.499zM548.999 806.999l-104 -139h-33l57 139h80z" />
    <glyph glyph-name="ocircumflex" unicode="&#xf4;" horiz-adv-x="893" 
d="M823 309c0 -100 -38.3359 -181.001 -115.003 -243.001c-69.333 -56 -156.666 -84 -261.999 -84c-104 0 -191 28.333 -261 85c-76.667 62 -115 142.667 -115 242c0 98 38.667 178.333 116 241c70.667 57.333 157.334 86 260.001 86s189.334 -28.667 260.001 -86
c78 -63.333 117 -143.666 117 -240.999zM752.997 302.999c0 78.667 -28.498 143.5 -85.498 194.5s-130.833 76.5 -221.5 76.5s-164.334 -25.667 -221.001 -77s-85 -116.666 -85 -195.999c0 -74.667 28.167 -136 84.5 -184s130.166 -72 221.499 -72s165.333 24.167 222 72.5
s85 110.166 85 185.499zM607.999 668.999h-66l-97 105l-98 -105h-66l128 139h76z" />
    <glyph glyph-name="otilde" unicode="&#xf5;" horiz-adv-x="893" 
d="M823 309c0 -100 -38.3359 -181.001 -115.003 -243.001c-69.333 -56 -156.666 -84 -261.999 -84c-104 0 -191 28.333 -261 85c-76.667 62 -115 142.667 -115 242c0 98 38.667 178.333 116 241c70.667 57.333 157.334 86 260.001 86s189.334 -28.667 260.001 -86
c78 -63.333 117 -143.666 117 -240.999zM752.997 302.999c0 78.667 -28.498 143.5 -85.498 194.5s-130.833 76.5 -221.5 76.5s-164.334 -25.667 -221.001 -77s-85 -116.666 -85 -195.999c0 -74.667 28.167 -136 84.5 -184s130.166 -72 221.499 -72s165.333 24.167 222 72.5
s85 110.166 85 185.499zM592.999 750.999c-26 -44 -55.6689 -66 -89.002 -66c-18 0 -41.167 6.16699 -69.5 18.5s-47.166 18.5 -56.499 18.5c-22 0 -41.333 -13.333 -58 -40l-33 25c33.333 42.667 62.333 64 87 64c15.333 0 37.333 -6.33301 66 -19s49.667 -19 63 -19
c20.667 0 39.334 13.667 56.001 41z" />
    <glyph glyph-name="odieresis" unicode="&#xf6;" horiz-adv-x="893" 
d="M823 309c0 -100 -38.3359 -181.001 -115.003 -243.001c-69.333 -56 -156.666 -84 -261.999 -84c-104 0 -191 28.333 -261 85c-76.667 62 -115 142.667 -115 242c0 98 38.667 178.333 116 241c70.667 57.333 157.334 86 260.001 86s189.334 -28.667 260.001 -86
c78 -63.333 117 -143.666 117 -240.999zM752.997 302.999c0 78.667 -28.498 143.5 -85.498 194.5s-130.833 76.5 -221.5 76.5s-164.334 -25.667 -221.001 -77s-85 -116.666 -85 -195.999c0 -74.667 28.167 -136 84.5 -184s130.166 -72 221.499 -72s165.333 24.167 222 72.5
s85 110.166 85 185.499zM577.999 736.999c0 -13.333 -4.83301 -24.833 -14.5 -34.5s-21.5 -14.5 -35.5 -14.5c-13.333 0 -24.833 4.66699 -34.5 14s-14.5 21 -14.5 35s4.83301 25.833 14.5 35.5s21.167 14.5 34.5 14.5s25 -5 35 -15s15 -21.667 15 -35zM413.999 736.999
c0 -13.333 -4.83301 -24.833 -14.5 -34.5s-21.167 -14.5 -34.5 -14.5c-14 0 -25.833 4.83301 -35.5 14.5s-14.5 21.167 -14.5 34.5s5 25 15 35s21.667 15 35 15s24.833 -4.83301 34.5 -14.5s14.5 -21.5 14.5 -35.5z" />
    <glyph glyph-name="divide" unicode="&#xf7;" horiz-adv-x="833" 
d="M417 523c14.667 0 27 -5.16699 37 -15.5s15 -22.833 15 -37.5c0 -14 -5 -26.167 -15 -36.5s-22.333 -15.5 -37 -15.5s-27 5 -37 15s-15 22.333 -15 37s5.16699 27.167 15.5 37.5s22.5 15.5 36.5 15.5zM709 322v-48h-585v48h585zM417 178c14.667 0 27 -5 37 -15
s15 -22.333 15 -37c0 -14 -5 -26.167 -15 -36.5s-22.333 -15.5 -37 -15.5s-27 5 -37 15s-15 22.333 -15 37s5.16699 27 15.5 37s22.5 15 36.5 15z" />
    <glyph glyph-name="oslash" unicode="&#xf8;" horiz-adv-x="893" 
d="M691 562c88 -70.667 131.998 -155 131.998 -253c0 -100 -38.333 -181 -115 -243c-69.333 -56 -156.666 -84 -261.999 -84c-66.667 0 -132.667 15 -198 45l-60 -72h-77l86 103c-84.667 68 -127 151.667 -127 251c0 98 38.667 178.333 116 241
c70.667 57.333 157.334 86 260.001 86c63.333 0 128.333 -14.667 195 -44l52 65h75zM288.998 77c49.333 -21.333 101.667 -32.001 157 -32.001c92.667 0 167 24.333 223 73s84 112.334 84 191.001c0 79.333 -34.333 147 -103 203zM598.999 540.999
c-50.667 22 -101.666 33 -152.999 33c-90.667 0 -164.334 -25.667 -221.001 -77s-85 -117.333 -85 -198c0 -72 32.333 -136 97 -192z" />
    <glyph glyph-name="ugrave" unicode="&#xf9;" horiz-adv-x="869" 
d="M764 201c0 -62.667 -29.667 -113.5 -89 -152.5s-139 -58.5 -239 -58.5c-100.667 0 -181 19.667 -241 59s-90 90 -90 152v414h65v-393c0 -113.333 88.667 -170 266 -170c175.333 0 263 56.667 263 170v393h65v-414zM467 668h-33l-104 139h79z" />
    <glyph glyph-name="uacute" unicode="&#xfa;" horiz-adv-x="869" 
d="M764 201c0 -62.667 -29.667 -113.5 -89 -152.5s-139 -58.5 -239 -58.5c-100.667 0 -181 19.667 -241 59s-90 90 -90 152v414h65v-393c0 -113.333 88.667 -170 266 -170c175.333 0 263 56.667 263 170v393h65v-414zM537 807l-104 -139h-33l57 139h80z" />
    <glyph glyph-name="ucircumflex" unicode="&#xfb;" horiz-adv-x="869" 
d="M764 201c0 -62.667 -29.667 -113.5 -89 -152.5s-139 -58.5 -239 -58.5c-100.667 0 -181 19.667 -241 59s-90 90 -90 152v414h65v-393c0 -113.333 88.667 -170 266 -170c175.333 0 263 56.667 263 170v393h65v-414zM596 669h-66l-97 105l-98 -105h-66l128 139h76z" />
    <glyph glyph-name="udieresis" unicode="&#xfc;" horiz-adv-x="869" 
d="M764 201c0 -62.667 -29.667 -113.5 -89 -152.5s-139 -58.5 -239 -58.5c-100.667 0 -181 19.667 -241 59s-90 90 -90 152v414h65v-393c0 -113.333 88.667 -170 266 -170c175.333 0 263 56.667 263 170v393h65v-414zM566 737c0 -13.333 -4.83301 -24.833 -14.5 -34.5
s-21.5 -14.5 -35.5 -14.5c-13.333 0 -24.833 4.66699 -34.5 14s-14.5 21 -14.5 35s4.83301 25.833 14.5 35.5s21.167 14.5 34.5 14.5s25 -5 35 -15s15 -21.667 15 -35zM402 737c0 -13.333 -4.83301 -24.833 -14.5 -34.5s-21.167 -14.5 -34.5 -14.5
c-14 0 -25.833 4.83301 -35.5 14.5s-14.5 21.167 -14.5 34.5s5 25 15 35s21.667 15 35 15s24.833 -4.83301 34.5 -14.5s14.5 -21.5 14.5 -35.5z" />
    <glyph glyph-name="yacute" unicode="&#xfd;" horiz-adv-x="697" 
d="M692 615l-310 -368v-247h-65v247l-312 368h80l263 -305l263 305h81zM451 807l-104 -139h-33l57 139h80z" />
    <glyph glyph-name="thorn" unicode="&#xfe;" horiz-adv-x="791" 
d="M581 552c58.667 0 105.167 -16.667 139.5 -50s51.5 -78.333 51.5 -135c0 -55.333 -18.5 -99.5 -55.5 -132.5s-86.833 -49.5 -149.5 -49.5h-390v-185h-65v615h65v-63h404zM577 248c39.333 0 69.667 10.5 91 31.5s32 50.833 32 89.5c0 80 -47.667 120 -143 120h-380v-241
h400z" />
    <glyph glyph-name="ydieresis" unicode="&#xff;" horiz-adv-x="697" 
d="M692 615l-310 -368v-247h-65v247l-312 368h80l263 -305l263 305h81zM480 737c0 -13.333 -4.83301 -24.833 -14.5 -34.5s-21.5 -14.5 -35.5 -14.5c-13.333 0 -24.833 4.66699 -34.5 14s-14.5 21 -14.5 35s4.83301 25.833 14.5 35.5s21.167 14.5 34.5 14.5s25 -5 35 -15
s15 -21.667 15 -35zM316 737c0 -13.333 -4.83301 -24.833 -14.5 -34.5s-21.167 -14.5 -34.5 -14.5c-14 0 -25.833 4.83301 -35.5 14.5s-14.5 21.167 -14.5 34.5s5 25 15 35s21.667 15 35 15s24.833 -4.83301 34.5 -14.5s14.5 -21.5 14.5 -35.5z" />
    <glyph glyph-name="dotlessi" unicode="&#x131;" horiz-adv-x="290" 
d="M177 0h-65v615h65v-615z" />
    <glyph glyph-name="Lslash" unicode="&#x141;" horiz-adv-x="755" 
d="M750 0h-624v247l-49 -33v73l49 33v404h65v-361l243 163v-73l-243 -163v-227h559v-63z" />
    <glyph glyph-name="lslash" unicode="&#x142;" horiz-adv-x="658" 
d="M653 0h-541v187l-52 -35v73l52 35v355h65v-311l176 119v-73l-176 -119v-168h476v-63z" />
    <glyph glyph-name="OE" unicode="&#x152;" horiz-adv-x="1461" 
d="M1419 0h-907.999c-120.667 0 -219.334 30 -296.001 90c-87.333 68 -131 158.333 -131 271c0 110.667 43.667 200.667 131 270c78 62 175.667 93 293 93h883v-63h-610v-246h424v-63h-424v-289h638v-63zM716.001 122l0.000976562 456.001c0 55.333 -46.333 83 -139 83h-69
c-106 0 -191.5 -27.833 -256.5 -83.5s-97.5 -127.834 -97.5 -216.501c0 -91.333 31.667 -163.833 95 -217.5s149.666 -80.5 258.999 -80.5h81c84.667 0 127 19.667 127 59z" />
    <glyph glyph-name="oe" unicode="&#x153;" horiz-adv-x="1255" 
d="M1215 0l-777 -0.000976562c-110 0 -198.833 28.5 -266.5 85.5s-101.5 130.833 -101.5 221.5c0 94.667 37.667 171.334 113 230.001c66.667 52 150.667 78 252 78h756v-63h-518v-195h360v-63h-360v-231h542v-63zM608 106.999v380c0 43.333 -38 65 -114 65h-59
c-88.667 0 -160 -22.667 -214 -68s-81 -104.333 -81 -177c0 -74.667 26.333 -134 79 -178s124.667 -66 216 -66h76c64.667 0 97 14.667 97 44z" />
    <glyph glyph-name="Scaron" unicode="&#x160;" horiz-adv-x="931" 
d="M751 609c-87.333 48 -187.664 72.001 -300.997 72.001c-90 0 -158.833 -12.167 -206.5 -36.5s-71.5 -58.833 -71.5 -103.5c0 -44 23 -75.333 69 -94c40.667 -16.667 109.667 -27 207 -31c83.333 -3.33301 139.666 -6.66602 168.999 -9.99902
c53.333 -5.33301 96 -15 128 -29c70.667 -30.667 106 -84.334 106 -161.001c0 -73.333 -32.167 -130.5 -96.5 -171.5s-156.5 -61.5 -276.5 -61.5c-162.667 0 -295.334 35.667 -398.001 107l38 55c105.333 -67.333 220.666 -101 345.999 -101
c100 0 176.833 14.833 230.5 44.5s80.5 70.834 80.5 123.501c0 49.333 -24.333 84.666 -73 105.999c-43.333 19.333 -117 31.333 -221 36c-76.667 3.33301 -130 6.66602 -160 9.99902c-50 4.66699 -89.667 12.667 -119 24c-70.667 26.667 -106 75 -106 145
c0 65.333 30.333 116.5 91 153.5s147 55.5 259 55.5c151.333 0 268.333 -27.667 351 -83zM625.002 918.001l-123 -139h-76l-128 139h66l98 -105l97 105h66z" />
    <glyph glyph-name="scaron" unicode="&#x161;" horiz-adv-x="802" 
d="M649 510c-77.333 40.667 -165.669 61 -265.002 61c-150.667 0 -226 -35.667 -226 -107c0 -38.667 20.333 -65.334 61 -80.001c34.667 -13.333 97.334 -21.666 188.001 -24.999c118.667 -4.66699 201 -18 247 -40c54 -25.333 81 -70 81 -134
c0 -63.333 -27.667 -112.333 -83 -147s-135 -52 -239 -52c-142 0 -257.333 31.333 -346 94l37 53c90.667 -57.333 194 -86 310 -86c78 0 138.5 12 181.5 36s64.5 56 64.5 96c0 42.667 -20.667 72.667 -62 90c-35.333 14.667 -97.666 24 -186.999 28
c-120.667 4.66699 -202.667 16 -246 34c-54.667 21.333 -82 61.666 -82 120.999c0 56.667 26.167 100.834 78.5 132.501s126.833 47.5 223.5 47.5c122 0 222.667 -24.333 302 -73zM559.997 807l-123 -139h-76l-128 139h66l98 -105l97 105h66z" />
    <glyph glyph-name="Ydieresis" unicode="&#x178;" horiz-adv-x="793" 
d="M788 724l-358 -433v-291h-65v291l-360 433h79l312 -368l313 368h79zM528 848c0 -13.333 -4.83301 -24.833 -14.5 -34.5s-21.5 -14.5 -35.5 -14.5c-13.333 0 -24.833 4.66699 -34.5 14s-14.5 21 -14.5 35s4.83301 25.833 14.5 35.5s21.167 14.5 34.5 14.5s25 -5 35 -15
s15 -21.667 15 -35zM364 848c0 -13.333 -4.83301 -24.833 -14.5 -34.5s-21.167 -14.5 -34.5 -14.5c-14 0 -25.833 4.83301 -35.5 14.5s-14.5 21.167 -14.5 34.5s5 25 15 35s21.667 15 35 15s24.833 -4.83301 34.5 -14.5s14.5 -21.5 14.5 -35.5z" />
    <glyph glyph-name="Zcaron" unicode="&#x17d;" horiz-adv-x="793" 
d="M758 0h-731v63l606 598h-598v63h696v-63l-620 -598h647v-63zM549 918l-123 -139h-76l-128 139h66l98 -105l97 105h66z" />
    <glyph glyph-name="zcaron" unicode="&#x17e;" horiz-adv-x="662" 
d="M647 0h-632v63l508 489h-501v63h602v-63l-520 -489h543v-63zM490 807l-123 -139h-76l-128 139h66l98 -105l97 105h66z" />
    <glyph glyph-name="florin" unicode="&#x192;" horiz-adv-x="539" 
d="M493 721l-18 -46.999c-17.333 6.66699 -33.666 10 -48.999 10c-52 0 -82.333 -25.667 -91 -77l-35 -205h115v-48h-124l-67 -362c-6 -32.667 -21.5 -59.334 -46.5 -80.001s-54.5 -31 -88.5 -31c-18 0 -40 4 -66 12l12 45c12 -6 27.333 -9 46 -9
c43.333 0 68.333 18.667 75 56l69 369h-94v48h102l28 161c8 45.333 16 76.333 24 93c25.333 54 68.333 81 129 81c25.333 0 51.666 -5.33301 78.999 -16z" />
    <glyph glyph-name="circumflex" unicode="&#x2c6;" 
d="M411 669h-66l-97 105l-98 -105h-66l128 139h76z" />
    <glyph glyph-name="caron" unicode="&#x2c7;" 
d="M409 807l-123 -139h-76l-128 139h66l98 -105l97 105h66z" />
    <glyph glyph-name="breve" unicode="&#x2d8;" 
d="M383 771c-3.33301 -30.667 -17.332 -55.334 -41.999 -74.001s-55.334 -28 -92.001 -28s-67.167 9.33301 -91.5 28s-38.5 43.334 -42.5 74.001h55c4 -33.333 30.333 -50 79 -50s75 16.667 79 50h55z" />
    <glyph glyph-name="dotaccent" unicode="&#x2d9;" 
d="M299 734c0 -13.333 -4.83301 -24.833 -14.5 -34.5s-21.5 -14.5 -35.5 -14.5s-25.833 4.83301 -35.5 14.5s-14.5 21.167 -14.5 34.5c0 14 5 25.833 15 35.5s21.667 14.5 35 14.5s25 -5 35 -15s15 -21.667 15 -35z" />
    <glyph glyph-name="ring" unicode="&#x2da;" 
d="M348 748c0 -22 -9.5 -40.667 -28.5 -56s-42.5 -23 -70.5 -23s-51.5 7.66699 -70.5 23s-28.5 34 -28.5 56s9.5 40.667 28.5 56s42.5 23 70.5 23s51.5 -7.66699 70.5 -23s28.5 -34 28.5 -56zM310 748c0 13.333 -5.66699 24.5 -17 33.5s-26 13.5 -44 13.5
s-32.5 -4.5 -43.5 -13.5s-16.5 -20.167 -16.5 -33.5s5.5 -24.333 16.5 -33s25.5 -13 43.5 -13c18.667 0 33.5 4.5 44.5 13.5s16.5 19.833 16.5 32.5z" />
    <glyph glyph-name="ogonek" unicode="&#x2db;" 
d="M303 -193c-28 -9.33301 -55 -14 -81 -14c-75.333 0 -113 30.333 -113 91c0 50 40 92.667 120 128h46c-62.667 -34 -94 -74.333 -94 -121c0 -22 6.16699 -39.5 18.5 -52.5s28.833 -19.5 49.5 -19.5c12 0 27.667 3.33301 47 10z" />
    <glyph glyph-name="tilde" unicode="&#x2dc;" 
d="M396 751c-26 -44 -55.6689 -66 -89.002 -66c-18 0 -41.167 6.16699 -69.5 18.5s-47.166 18.5 -56.499 18.5c-22 0 -41.333 -13.333 -58 -40l-33 25c33.333 42.667 62.333 64 87 64c15.333 0 37.333 -6.33301 66 -19s49.667 -19 63 -19c20.667 0 39.334 13.667 56.001 41z
" />
    <glyph glyph-name="hungarumlaut" unicode="&#x2dd;" 
d="M417 808l-90 -139h-33l44 139h79zM284 808l-90 -139h-33l44 139h79z" />
    <glyph glyph-name="Delta" unicode="&#x394;" horiz-adv-x="612" 
d="M595 0h-574l276 672h22zM72 32h399l-198 491z" />
    <glyph glyph-name="Delta" unicode="&#x2206;" horiz-adv-x="612" 
d="M595 0h-574l276 672h22zM72 32h399l-198 491z" />
    <glyph glyph-name="Omega" unicode="&#x3a9;" horiz-adv-x="768" 
d="M593 90c32 0 53.998 5.49902 65.998 16.499s19.333 34.167 22 69.5h23l-10 -176h-252v170c50 10 89 37 117 81c27.333 42 41 94.333 41 157c0 70.667 -19.667 128.5 -59 173.5s-91.666 67.5 -156.999 67.5s-117.666 -22.333 -156.999 -67s-59 -102.667 -59 -174
c0 -62.667 13.333 -115 40 -157c28 -44 67.333 -71 118 -81v-170h-252l-10 176h23c2 -34.667 9.16699 -57.667 21.5 -69s34.5 -17 66.5 -17h123v59c-79.333 14.667 -140.5 44.5 -183.5 89.5s-64.5 101.5 -64.5 169.5c0 80 30.5 144.5 91.5 193.5s141.833 73.5 242.5 73.5
s181.5 -24.5 242.5 -73.5s91.5 -113.5 91.5 -193.5c0 -67.333 -21.5 -123.666 -64.5 -168.999s-104.167 -75.333 -183.5 -90v-59h123z" />
    <glyph glyph-name="Omega" unicode="&#x2126;" horiz-adv-x="768" 
d="M593 90c32 0 53.998 5.49902 65.998 16.499s19.333 34.167 22 69.5h23l-10 -176h-252v170c50 10 89 37 117 81c27.333 42 41 94.333 41 157c0 70.667 -19.667 128.5 -59 173.5s-91.666 67.5 -156.999 67.5s-117.666 -22.333 -156.999 -67s-59 -102.667 -59 -174
c0 -62.667 13.333 -115 40 -157c28 -44 67.333 -71 118 -81v-170h-252l-10 176h23c2 -34.667 9.16699 -57.667 21.5 -69s34.5 -17 66.5 -17h123v59c-79.333 14.667 -140.5 44.5 -183.5 89.5s-64.5 101.5 -64.5 169.5c0 80 30.5 144.5 91.5 193.5s141.833 73.5 242.5 73.5
s181.5 -24.5 242.5 -73.5s91.5 -113.5 91.5 -193.5c0 -67.333 -21.5 -123.666 -64.5 -168.999s-104.167 -75.333 -183.5 -90v-59h123z" />
    <glyph glyph-name="pi" unicode="&#x3c0;" horiz-adv-x="549" 
d="M404 378c-2.66699 -88 -3.99902 -153.333 -3.99902 -196c0 -66 2.66699 -108 8 -126c4.66699 -15.333 15 -23 31 -23c21.333 0 36.333 9 45 27s13 48.333 13 91h25c0 -107.333 -35.333 -161 -106 -161c-43.333 0 -72.333 17.667 -87 53
c-10.667 27.333 -16 77.666 -16 150.999c0 -4 1.33301 57.333 4 184h-137c0 -149.333 -4.33301 -247.333 -13 -294c-12.667 -62.667 -39.334 -94 -80.001 -94c-30.667 0 -51 16 -61 48c-6 18 -9 46.667 -9 86h24c0.666992 -34.667 13 -52 37 -52c30 0 50.667 25 62 75
c9.33301 42 14.666 119 15.999 231h-22c-51.333 0 -80.333 -17.333 -87 -52h-23c2.66699 46.667 16.334 79.334 41.001 98.001c22.667 16.667 62 25 118 25h254c44 0 66 7.33301 66 22v1h23v-3c0 -33.333 -7.5 -56.833 -22.5 -70.5s-40.167 -20.5 -75.5 -20.5
c-10.667 -0.666992 -18.667 -0.666992 -24 0z" />
    <glyph glyph-name="endash" unicode="&#x2013;" horiz-adv-x="721" 
d="M661 292h-601v63h601v-63z" />
    <glyph glyph-name="emdash" unicode="&#x2014;" horiz-adv-x="862" 
d="M802 292h-742v63h742v-63z" />
    <glyph glyph-name="quoteleft" unicode="&#x2018;" horiz-adv-x="230" 
d="M175 549h-120v93c0 54.667 32.333 82 97 82h16v-30c-41.333 -3.33301 -62 -20.333 -62 -51v-31h69v-63z" />
    <glyph glyph-name="quoteright" unicode="&#x2019;" horiz-adv-x="230" 
d="M175 631c0 -54.667 -32.333 -82 -97 -82h-16v30c41.333 3.33301 62 20.333 62 51v31h-69v63h120v-93z" />
    <glyph glyph-name="quotesinglbase" unicode="&#x201a;" horiz-adv-x="275" 
d="M194 -30c0 -54.667 -32.333 -82 -97 -82h-16v30c41.333 3.33301 62 20.333 62 51v31h-69v63h120v-93z" />
    <glyph glyph-name="quotedblleft" unicode="&#x201c;" horiz-adv-x="407" 
d="M352 549h-120v93c0 54.667 32.333 82 97 82h16v-30c-41.333 -3.33301 -62 -20.333 -62 -51v-31h69v-63zM175 549h-120v93c0 54.667 32.333 82 97 82h16v-30c-41.333 -3.33301 -62 -20.333 -62 -51v-31h69v-63z" />
    <glyph glyph-name="quotedblright" unicode="&#x201d;" horiz-adv-x="407" 
d="M347 631c0 -54.667 -32.333 -82 -97 -82h-16v30c41.333 3.33301 62 20.333 62 51v31h-69v63h120v-93zM170 631c0 -54.667 -32.333 -82 -97 -82h-16v30c41.333 3.33301 62 20.333 62 51v31h-69v63h120v-93z" />
    <glyph glyph-name="quotedblbase" unicode="&#x201e;" horiz-adv-x="442" 
d="M370 -30c0 -54.667 -32.333 -82 -97 -82h-16v30c41.333 3.33301 62 20.333 62 51v31h-69v63h120v-93zM193 -30c0 -54.667 -32.333 -82 -97 -82h-16v30c41.333 3.33301 62 20.333 62 51v31h-69v63h120v-93z" />
    <glyph glyph-name="dagger" unicode="&#x2020;" horiz-adv-x="506" 
d="M442 504h-170l18 -576h-80l18 576h-169v63h166l-13 226h75l-12 -226h167v-63z" />
    <glyph glyph-name="daggerdbl" unicode="&#x2021;" horiz-adv-x="508" 
d="M442 153h-159l7 -225h-80l7 225h-158v63h160l9 288h-169v63h166l-13 226h75l-12 -226h167v-63h-170l9 -288h161v-63z" />
    <glyph glyph-name="bullet" unicode="&#x2022;" horiz-adv-x="549" 
d="M456 357c0 -46.667 -18.333 -87.667 -55 -123c-34 -32.667 -76 -49 -126 -49s-92 16.333 -126 49c-36.667 35.333 -55 76.333 -55 123s18 87 54 121s78.333 51 127 51c49.333 0 91.333 -16.667 126 -50c36.667 -35.333 55 -76 55 -122z" />
    <glyph glyph-name="ellipsis" unicode="&#x2026;" horiz-adv-x="742" 
d="M590 365c-72.667 -85.333 -165.666 -128.001 -278.999 -128.001c-75.333 0 -137.166 17.833 -185.499 53.5s-72.5 80.834 -72.5 135.501c0 58.667 24.833 106.167 74.5 142.5s116.834 54.5 201.501 54.5c102.667 0 184.167 -29.167 244.5 -87.5
s90.5 -136.833 90.5 -235.5c0 -90 -31.333 -164.333 -94 -223s-139.334 -88 -230.001 -88c-112 0 -196.333 33.333 -253 100l48 40c56 -52 122.667 -78 200 -78c37.333 0 73.666 7.33301 108.999 22c47.333 20 84.666 50.667 111.999 92s41 88 41 140
c0 21.333 -2.33301 41.333 -7 60zM569.001 434.999c-28.667 46 -62.332 78.667 -100.999 98s-87.334 29 -146.001 29c-64 0 -113.167 -11.5 -147.5 -34.5s-51.5 -55.5 -51.5 -97.5c0 -38.667 17.667 -70.167 53 -94.5s82.333 -36.5 141 -36.5c112 0 196 45.333 252 136z" />
    <glyph glyph-name="perthousand" unicode="&#x2030;" horiz-adv-x="1446" 
d="M1367 182c0 -53.333 -18 -98.668 -54 -136.001c-38 -39.333 -82.333 -59 -133 -59s-95 19.667 -133 59c-34.667 36 -52 81.333 -52 136s17.333 100.334 52 137.001c38 40 82.333 60 133 60c51.333 0 96 -20 134 -60c35.333 -37.333 53 -83 53 -137zM941 181.998
c0 -53.333 -18 -98.668 -54 -136.001c-38 -39.333 -82.333 -59 -133 -59s-95 19.667 -133 59c-34.667 36 -52 81.333 -52 136s17.333 100.334 52 137.001c38 40 82.333 60 133 60c50 0 94.333 -20 133 -60c36 -37.333 54 -83 54 -137zM846 723.996l-613 -734h-80l614 734h79
zM431 541.996c0 -54 -18.335 -100 -55.002 -138s-80.667 -57 -132 -57s-95.666 19.333 -132.999 58c-34.667 36 -52 81.667 -52 137c0 54.667 17.333 100.334 52 137.001c38 40 82.333 60 133 60s95.334 -20 134.001 -60c35.333 -36.667 53 -82.334 53 -137.001z
M1311 181.996c0 40.667 -13 75.334 -39 104.001s-56.667 43 -92 43s-65.833 -14.333 -91.5 -43s-38.5 -63.334 -38.5 -104.001s12.667 -75.167 38 -103.5s56 -42.5 92 -42.5s66.833 14.333 92.5 43s38.5 63 38.5 103zM884.998 181.996c0 40.667 -13 75.334 -39 104.001
s-56.667 43 -92 43s-65.833 -14.333 -91.5 -43s-38.5 -63.334 -38.5 -104.001s12.667 -75.167 38 -103.5s56 -42.5 92 -42.5s66.833 14.333 92.5 43s38.5 63 38.5 103zM374.998 541.996c0 40.667 -13 75.334 -39 104.001s-56.667 43 -92 43s-65.833 -14.333 -91.5 -43
s-38.5 -63.334 -38.5 -104.001s12.667 -75.167 38 -103.5s56 -42.5 92 -42.5s66.833 14.333 92.5 43s38.5 63 38.5 103z" />
    <glyph glyph-name="guilsinglleft" unicode="&#x2039;" horiz-adv-x="329" 
d="M268 484l-138 -163l136 -162h-76l-141 162l145 163h74z" />
    <glyph glyph-name="guilsinglright" unicode="&#x203a;" horiz-adv-x="329" 
d="M278 321l-141 -162h-76l136 162l-138 163h74z" />
    <glyph glyph-name="fraction" unicode="&#x2044;" horiz-adv-x="268" 
d="M480 724l-612 -734h-80l613 734h79z" />
    <glyph glyph-name="trademark" unicode="&#x2122;" horiz-adv-x="409" 
d="M376 548h-39v125l-46 -125h-18l-47 125v-125h-40v166h58l39 -100l36 100h57v-166zM153 681h-51v-133h-41v133h-51v33h143v-33z" />
    <glyph glyph-name="partialdiff" unicode="&#x2202;" horiz-adv-x="494" 
d="M358 287c8 30 12 79.334 12 148.001c0 111.333 -21 167 -63 167c-13.333 0 -30.166 -11.667 -50.499 -35s-38.833 -35 -55.5 -35c-24.667 0 -37 10.667 -37 32c0 18.667 9.66699 35.167 29 49.5s43.666 21.5 72.999 21.5c51.333 0 92.333 -23 123 -69
c31.333 -48.667 47 -115 47 -199c0 -110.667 -22 -202.334 -66 -275.001c-42.667 -70 -94.667 -105 -156 -105c-44.667 0 -80.667 16.333 -108 49c-29.333 34 -44 80.333 -44 139c0 56 17.667 104.167 53 144.5s77 60.5 125 60.5c58 0 97.333 -31 118 -93zM256 349.001
c-34.667 0 -63 -19.333 -85 -58c-23.333 -40.667 -35 -95 -35 -163c0 -79.333 28 -119 84 -119c34.667 0 63.5 20.5 86.5 61.5s34.5 92.167 34.5 153.5c0 83.333 -28.333 125 -85 125z" />
    <glyph glyph-name="product" unicode="&#x220f;" horiz-adv-x="823" 
d="M118 -184v896h-88v32h767v-32h-88v-896h88v-32h-264v32h84v896h-407v-896h84v-32h-264v32h88z" />
    <glyph glyph-name="summation" unicode="&#x2211;" horiz-adv-x="713" 
d="M633 514h-34c-22 72 -52.667 123 -92 153s-96.666 45 -171.999 45h-142l325 -446l-359 -394h212c76 0 130.667 9 164 27c37.333 20 67.666 60.333 90.999 121h35l-53 -236h-572l398 436l-384 524h550z" />
    <glyph glyph-name="radical" unicode="&#x221a;" horiz-adv-x="549" 
d="M594 764h-57l-290 -784h-32l-156 431l-61 -22l-12 39l138 48l125 -346l252 681h93v-47z" />
    <glyph glyph-name="infinity" unicode="&#x221e;" horiz-adv-x="713" 
d="M366 238c-43.333 -82.667 -95.666 -124 -156.999 -124c-42.667 0 -79.334 17.333 -110.001 52s-46 78.667 -46 132c0 55.333 13.5 100.166 40.5 134.499s62.167 51.5 105.5 51.5c60.667 0 110 -41.333 148 -124c42 82.667 94.333 124 157 124
c42.667 0 79.167 -17.333 109.5 -52s45.5 -78.667 45.5 -132c0 -55.333 -13.333 -100.166 -40 -134.499s-61.667 -51.5 -105 -51.5c-62 0 -111.333 41.333 -148 124zM336 334c-31.333 57.333 -78.333 86.001 -141 86.001c-34 0 -62 -11.667 -84 -35s-33 -53.333 -33 -90
s10 -66.334 30 -89.001s45.333 -34 76 -34c29.333 0 56.333 14 81 42c21.333 24.667 45 64.667 71 120zM376 264.001c30.667 -57.333 78 -85.999 142 -85.999c34 0 62 11.667 84 35s33 53.333 33 90c0 37.333 -10 67.166 -30 89.499s-46.667 33.5 -80 33.5
c-51.333 0 -101 -54 -149 -162z" />
    <glyph glyph-name="integral" unicode="&#x222b;" horiz-adv-x="274" 
d="M283 757c23.333 0 42.666 -6.16699 57.999 -18.5s23 -28.5 23 -48.5c0 -32 -16.333 -48 -49 -48c-19.333 0 -33.833 12.333 -43.5 37s-19.5 37 -29.5 37c-25.333 0 -41.333 -36.333 -48 -109c-2 -21.333 -6 -124.333 -12 -309c-6 -181.333 -21.667 -302 -47 -362
c-33.333 -78 -81.333 -117 -144 -117c-23.333 0 -42.666 6.16699 -57.999 18.5s-23 28.5 -23 48.5c0 31.333 16.333 47 49 47c19.333 0 34 -12.167 44 -36.5s20 -36.5 30 -36.5c24 0 39.667 36.333 47 109c2.66699 29.333 6.66699 132.333 12 309
c5.33301 179.333 21 300 47 362c32.667 78 80.667 117 144 117z" />
    <glyph glyph-name="approxequal" unicode="&#x2248;" horiz-adv-x="549" 
d="M385 243c-22 0 -56.499 7.83301 -103.499 23.5s-84.167 23.5 -111.5 23.5c-40 0 -90.667 -21.667 -152 -65v69c57.333 37.333 109.666 56 156.999 56c24 0 52 -4.66699 84 -14l82 -26c18.667 -4.66699 35 -7 49 -7c36 0 83 21 141 63v-69c-54 -36 -102.667 -54 -146 -54z
M385.001 124c-21.333 0 -55.666 7.83301 -102.999 23.5s-86.333 23.5 -117 23.5c-36.667 0 -85.667 -21.667 -147 -65v69c59.333 38 112 57 158 57c24 0 52 -5 84 -15l81 -25c18.667 -5.33301 35 -8 49 -8c35.333 0 82.333 21.333 141 64v-70
c-52.667 -36 -101.334 -54 -146.001 -54z" />
    <glyph glyph-name="approxequal" unicode="&#x22f2;" horiz-adv-x="549" 
d="M385 243c-22 0 -56.499 7.83301 -103.499 23.5s-84.167 23.5 -111.5 23.5c-40 0 -90.667 -21.667 -152 -65v69c57.333 37.333 109.666 56 156.999 56c24 0 52 -4.66699 84 -14l82 -26c18.667 -4.66699 35 -7 49 -7c36 0 83 21 141 63v-69c-54 -36 -102.667 -54 -146 -54z
M385.001 124c-21.333 0 -55.666 7.83301 -102.999 23.5s-86.333 23.5 -117 23.5c-36.667 0 -85.667 -21.667 -147 -65v69c59.333 38 112 57 158 57c24 0 52 -5 84 -15l81 -25c18.667 -5.33301 35 -8 49 -8c35.333 0 82.333 21.333 141 64v-70
c-52.667 -36 -101.334 -54 -146.001 -54z" />
    <glyph glyph-name="notequal" unicode="&#x2260;" horiz-adv-x="549" 
d="M222 139l-117 -117l-39 40l77 77h-95v58h148l79 78h-227v58h279l117 117l40 -40l-78 -77h95v-58h-147l-79 -78h226v-58h-279z" />
    <glyph glyph-name="lessequal" unicode="&#x2264;" horiz-adv-x="549" 
d="M47 270v61l456 143v-64l-351 -110l351 -109v-64zM46 0v62h457v-62h-457z" />
    <glyph glyph-name="greaterequal" unicode="&#x2265;" horiz-adv-x="549" 
d="M46 127v64l351 109l-351 110v64l457 -143v-61zM46 0v62h457v-62h-457z" />
    <glyph glyph-name="lozenge" unicode="&#x25ca;" horiz-adv-x="494" 
d="M247 807l244 -518l-244 -522l-244 522zM247 688l-188 -399l188 -403l188 403z" />
    <glyph glyph-name="fi" unicode="&#xf001;" horiz-adv-x="1001" 
d="M888 0h-65v615h65v-615zM696 552h-519v-195h361v-63h-361v-294h-65v615h584v-63z" />
    <glyph glyph-name="fl" unicode="&#xf002;" horiz-adv-x="1369" 
d="M1364 0h-541v615h65v-552h476v-63zM696 552h-519v-195h361v-63h-361v-294h-65v615h584v-63z" />
    <glyph glyph-name=".null" horiz-adv-x="0" 
 />
    <glyph glyph-name="nonmarkingreturn" horiz-adv-x="270" 
 />
    <glyph glyph-name="glyph246" horiz-adv-x="270" 
 />
    </font>
</defs>
</svg>
