<?xml version="1.0" standalone="no"?> <!DOCTYPE svg PUBLIC "-//W3C//DTD SVG 1.0//EN" "http://www.w3.org/TR/2001/REC-SVG-20010904/DTD/svg10.dtd" > <svg xmlns="http://www.w3.org/2000/svg" width="100%" height="100%">
<defs >
<font horiz-adv-x="685" ><font-face
    font-family="BlairITC TT"
    units-per-em="1000"
    panose-1="0 0 3 0 0 0 0 0 0 0"
    ascent="927"
    descent="-236"
    alphabetic="0" />
<missing-glyph horiz-adv-x="500" d="M63 0V771H438V0H63ZM125 63H375V709H125V63Z" />
<glyph unicode=" " glyph-name="space" horiz-adv-x="270" />
<glyph unicode="!" glyph-name="exclam" horiz-adv-x="320" d="M206 695L191 144H130L115 724H206V695ZM220 0H100V63H220V0Z" />
<glyph unicode="&quot;" glyph-name="quotedbl" horiz-adv-x="278" d="M97 700V430H48V700H97ZM231 700V430H181V700H231Z" />
<glyph unicode="#" glyph-name="numbersign" horiz-adv-x="912" d="M715 534H619L592 357H683V307H584L557 116H505L534 307H336L307 116H255L284 307H186V357H291L318 534H221V584H325L347 724H397L376 584H575L597 724H646L626 584H715V534ZM568 534H369L342
357H541L568 534Z" />
<glyph unicode="$" glyph-name="dollar" horiz-adv-x="912" d="M480 404Q646 402 725 355T805 207Q805 -4 480 -10V-66H421V-9Q213 5 107 96L137 144Q264 57 421 46V351Q117 351 117 521Q117 718 421 729V767H480V728Q660 719 758 657L719 609Q606 669 480 672V404ZM421
408V674Q183 669 183 528Q183 465 241 437T421 408ZM480 44Q605 48 672 89T739 201Q739 346 480 349V44Z" />
<glyph unicode="%" glyph-name="percent" horiz-adv-x="1078" d="M980 182Q980 102 926 46Q869 -13 793 -13Q717 -13 660 46Q608 100 608 182Q608 264 660 319Q717 379 793 379Q869 379 927 319Q980 264 980 182ZM885 724L273 -10H193L806 724H885ZM470 542Q470
461 415 404T283 347Q206 347 150 405Q98 459 98 542Q98 624 150 679Q207 739 283 739Q358 739 416 679Q470 623 470 542ZM924 182Q924 243 885 286T793 329Q740 329 702 286T663 182Q663 121 701 79T793 36Q847 36 885 79T924 182ZM414 542Q414 603 375 646T283
689Q230 689 192 646T153 542Q153 481 191 439T283 396Q337 396 375 439T414 542Z" />
<glyph unicode="&amp;" glyph-name="ampersand" horiz-adv-x="971" d="M878 -1Q750 11 642 80Q520 -13 355 -13Q238 -13 166 45T93 192Q93 356 364 415Q308 498 308 559Q308 634 359 683T490 733Q568 733 616 686T665 565Q665 419 456 379Q535 259 644 161Q713
210 772 352H838Q775 194 687 122Q774 70 878 62V-1ZM424 427Q510 436 556 472T602 565Q602 612 571 642T491 673Q438 673 405 641T372 555Q372 495 424 427ZM599 123Q484 235 398 364Q165 324 165 192Q165 127 220 87T369 47Q476 47 599 123Z" />
<glyph unicode="&apos;" glyph-name="quotesingle" horiz-adv-x="144" d="M97 700V430H48V700H97Z" />
<glyph unicode="(" glyph-name="parenleft" horiz-adv-x="443" d="M368 -141Q268 -138 204 -32Q122 104 122 324Q122 545 205 683Q268 789 368 793V759Q305 755 263 680Q186 542 186 324Q186 130 245 1Q292 -103 368 -107V-141Z" />
<glyph unicode=")" glyph-name="parenright" horiz-adv-x="443" d="M75 793Q175 789 238 683Q321 543 321 324Q321 106 238 -32Q174 -138 75 -141V-107Q150 -102 197 1Q257 133 257 324Q257 541 180 680Q139 754 75 759V793Z" />
<glyph unicode="*" glyph-name="asterisk" horiz-adv-x="620" d="M512 559L341 517L464 379L415 343L315 497L221 337L171 373L287 515L108 550L127 609L296 544L276 724H337L328 543L493 617L512 559Z" />
<glyph unicode="+" glyph-name="plus" horiz-adv-x="336" d="M215 0H150V552L51 507V560Q107 583 151 615H215V0Z" />
<glyph unicode="," glyph-name="comma" horiz-adv-x="320" d="M220 -30Q220 -112 123 -112H107V-82Q169 -77 169 -31V0H100V63H220V-30Z" />
<glyph unicode="-" glyph-name="hyphen" horiz-adv-x="437" d="M377 292H60V355H377V292Z" />
<glyph unicode="." glyph-name="period" horiz-adv-x="320" d="M220 0H100V63H220V0Z" />
<glyph unicode="/" glyph-name="slash" horiz-adv-x="505" d="M507 724L78 -10H-2L428 724H507Z" />
<glyph unicode="0" glyph-name="zero" horiz-adv-x="885" d="M796 362Q796 269 756 189T641 54Q551 -12 442 -12Q332 -12 242 54Q169 108 129 188T89 362Q89 455 129 535T242 669Q331 734 442 734Q553 734 642 669Q715 615 755 535T796 362ZM730 362Q730 523 605
617Q532 672 442 672Q352 672 279 617Q155 523 155 362Q155 201 279 105Q351 49 442 49Q533 49 606 105Q730 200 730 362Z" />
<glyph unicode="1" glyph-name="one" horiz-adv-x="342" d="M221 0H156V663L40 610V660Q103 685 156 724H221V0Z" />
<glyph unicode="2" glyph-name="two" horiz-adv-x="784" d="M721 0H41Q49 116 104 192Q144 246 208 283Q255 311 345 343Q353 346 460 379Q525 399 561 420Q629 460 629 527Q629 593 567 633T395 673Q249 673 121 573L82 621Q232 734 396 734Q534 734 617 676T701
528Q701 453 655 407T507 330Q449 313 391 295Q326 275 283 255Q153 194 114 63H721V0Z" />
<glyph unicode="3" glyph-name="three" horiz-adv-x="802" d="M544 377Q722 345 722 200Q722 97 631 43T364 -12Q252 -12 175 17Q94 48 31 118L71 169Q174 51 363 51Q648 51 648 208Q648 344 326 344H289V401Q309 400 348 400Q615 400 615 539Q615 602 557 637T392
673Q248 673 122 588L84 636Q238 734 389 734Q532 734 611 683T691 543Q691 421 544 377Z" />
<glyph unicode="4" glyph-name="four" horiz-adv-x="781" d="M751 152H584V0H519V152H30V216L519 724H584V215H751V152ZM519 215V649L93 215H519Z" />
<glyph unicode="5" glyph-name="five" horiz-adv-x="799" d="M118 388Q243 460 388 460Q537 460 631 391Q722 324 722 222Q722 117 636 53T401 -12Q167 -12 44 112L105 145Q240 50 390 50Q510 50 580 98T650 223Q650 301 578 350T383 399Q244 399 116 314L49 369L154
724H669V661H198L118 388Z" />
<glyph unicode="6" glyph-name="six" horiz-adv-x="872" d="M157 284Q273 437 469 437Q618 437 718 354Q786 297 786 213Q786 113 702 51Q614 -12 467 -12Q296 -12 189 92Q79 199 79 359Q79 479 145 572Q200 649 285 691T469 734Q633 734 741 626L692 585Q612
673 452 673Q316 673 233 586T150 353Q150 318 157 284ZM180 213Q265 51 471 51Q583 51 646 95T710 214Q710 285 644 330T467 375Q378 375 302 332T180 213Z" />
<glyph unicode="7" glyph-name="seven" horiz-adv-x="729" d="M695 661L236 0H156L618 661H24V724H695V661Z" />
<glyph unicode="8" glyph-name="eight" horiz-adv-x="846" d="M552 374Q776 336 776 187Q776 94 684 41T420 -12Q248 -12 156 40T64 186Q64 338 288 374Q205 389 160 433T114 541Q114 630 194 682T419 734Q563 734 644 682T725 541Q725 412 552 374ZM658 541Q658
604 597 638T419 673Q305 673 244 639T183 541Q183 476 245 438T420 400Q534 400 596 437T658 541ZM698 192Q698 263 627 301T419 340Q282 340 209 302T136 195Q136 129 210 90T419 50Q554 50 626 87T698 192Z" />
<glyph unicode="9" glyph-name="nine" horiz-adv-x="869" d="M700 444Q643 369 558 328T377 286Q245 286 158 346T71 503Q71 605 157 669T389 733Q568 733 676 631T784 364Q784 261 735 176T593 40T394 -12Q225 -12 113 100L153 145Q251 50 395 50Q500 50 578
104Q640 147 675 214T711 359Q711 403 700 444ZM678 514Q621 602 554 637T381 673Q265 673 203 630T141 508Q141 436 205 391T375 346Q471 346 551 390T678 514Z" />
<glyph unicode=":" glyph-name="colon" horiz-adv-x="320" d="M220 410H100V473H220V410ZM220 0H100V63H220V0Z" />
<glyph unicode=";" glyph-name="semicolon" horiz-adv-x="320" d="M220 410H100V473H220V410ZM220 -30Q220 -112 123 -112H107V-82Q169 -77 169 -31V0H100V63H220V-30Z" />
<glyph unicode="&lt;" glyph-name="less" d="M627 0H39Q47 119 112 189T311 299T479 359Q537 390 537 446Q537 499 487 531T349 563Q218 563 112 479L72 525Q201 623 346 623Q467 623 538 574T610 443Q610 384 572 344Q544 315 495 296Q476 288 393 264Q317 242
303 237Q257 222 228 204Q147 154 118 63H627V0Z" />
<glyph unicode="=" glyph-name="equal" horiz-adv-x="682" d="M463 322Q604 288 604 167Q604 83 525 37T295 -10Q109 -10 5 103L43 149Q146 53 294 53Q531 53 531 179Q531 292 248 292H226V347Q246 346 282 346Q503 346 503 455Q503 506 455 534T319 563Q197 563
86 492L50 538Q186 624 316 624Q439 624 508 580T578 464Q578 362 463 322Z" />
<glyph unicode="&gt;" glyph-name="greater" horiz-adv-x="664" d="M642 127H500V0H435V127H19V188L438 615H500V190H642V127ZM435 190V536L89 190H435Z" />
<glyph unicode="?" glyph-name="question" horiz-adv-x="684" d="M39 611Q148 735 344 735Q481 735 557 680T634 530Q634 458 588 419Q551 388 453 356Q407 341 401 339Q375 329 359 315Q315 277 315 167V144H248L249 184Q251 280 287 332T407 412Q448 423 512
449Q560 479 560 534Q560 598 502 635T337 672Q196 672 91 573L39 611ZM348 0H228V63H348V0Z" />
<glyph unicode="@" glyph-name="at" horiz-adv-x="814" d="M395 -9Q249 -9 160 81T71 320Q71 422 131 508Q180 578 256 618T416 658Q547 658 642 578Q743 493 743 366Q743 296 708 238Q647 137 533 137Q470 137 447 192Q402 157 349 157Q300 157 271 190T241 280Q241
369 295 430T430 492Q462 492 490 474L498 492H562Q496 282 496 235Q496 178 544 178Q603 178 638 227T673 363Q673 471 602 538T416 606Q294 606 219 528T143 320Q143 44 423 43V-9H395ZM469 383Q469 456 416 456Q373 456 339 403Q304 346 304 266Q304 202 355
202Q400 202 434 254T469 383Z" />
<glyph unicode="A" glyph-name="A" horiz-adv-x="870" d="M865 0H790L691 188H181L80 0H5L388 724H484L865 0ZM658 251L441 661H432L214 251H658Z" />
<glyph unicode="B" glyph-name="B" horiz-adv-x="1006" d="M774 371Q922 324 922 191Q922 103 861 52T694 0H126V724H689Q789 724 844 675T900 539Q900 418 774 371ZM685 399Q748 399 789 438T830 537Q830 592 795 626T700 661H191V399H685ZM693 63Q854 63 854
195Q854 260 811 298T695 336H191V63H693Z" />
<glyph unicode="C" glyph-name="C" horiz-adv-x="973" d="M894 586L836 563Q719 686 519 686Q371 686 270 606Q153 513 153 364Q153 220 254 131T519 42Q732 42 836 162L890 127Q779 -20 528 -20Q389 -20 280 37Q186 87 135 171T84 364Q84 538 218 648Q339 747
519 747Q769 747 894 586Z" />
<glyph unicode="D" glyph-name="D" horiz-adv-x="1024" d="M557 724Q735 724 837 625T940 354Q940 201 838 101T581 0H126V724H557ZM586 63Q708 63 788 150Q865 234 865 357Q865 493 783 577T567 661H191V63H586Z" />
<glyph unicode="E" glyph-name="E" horiz-adv-x="871" d="M829 0H126V724H801V661H191V415H615V352H191V63H829V0Z" />
<glyph unicode="F" glyph-name="F" horiz-adv-x="816" d="M801 661H191V415H615V352H191V0H126V724H801V661Z" />
<glyph unicode="G" glyph-name="G" horiz-adv-x="1038" d="M954 360Q943 215 880 135Q756 -21 520 -21Q337 -21 216 79Q84 188 84 363Q84 535 217 645Q340 747 520 747Q748 747 884 595L824 557Q698 686 520 686Q368 686 266 601Q154 508 154 363Q154 219 255
130T520 41Q661 41 752 106T875 297H491V360H954Z" />
<glyph unicode="H" glyph-name="H" horiz-adv-x="1016" d="M890 0H825V352H191V0H126V724H191V415H825V724H890V0Z" />
<glyph unicode="I" glyph-name="I" horiz-adv-x="317" d="M191 0H126V724H191V0Z" />
<glyph unicode="J" glyph-name="J" horiz-adv-x="734" d="M619 225Q619 -21 318 -21Q180 -21 108 39T35 215H96Q97 123 149 82T313 41Q441 41 497 82T554 224V724H619V225Z" />
<glyph unicode="K" glyph-name="K" horiz-adv-x="881" d="M874 0H796L439 419L191 224V0H126V724H191V298L734 724H829L488 458L874 0Z" />
<glyph unicode="L" glyph-name="L" horiz-adv-x="755" d="M750 0H126V724H191V63H750V0Z" />
<glyph unicode="M" glyph-name="M" horiz-adv-x="1192" d="M1066 0H1001V661H997L596 145L194 661H191V0H126V724H227L596 241L966 724H1066V0Z" />
<glyph unicode="N" glyph-name="N" horiz-adv-x="1020" d="M894 0H802L191 661V0H126V724H220L829 63V724H894V0Z" />
<glyph unicode="O" glyph-name="O" horiz-adv-x="1041" d="M957 363Q957 188 823 78Q702 -21 521 -21Q339 -21 218 78Q84 188 84 363Q84 536 219 647Q341 747 521 747Q700 747 822 647Q957 536 957 363ZM888 363Q888 512 770 605Q667 686 521 686Q374 686 272
605Q155 512 155 363Q155 218 255 130T521 41Q686 41 787 130T888 363Z" />
<glyph unicode="P" glyph-name="P" horiz-adv-x="913" d="M672 724Q773 724 831 666T890 508Q890 411 827 354T655 297H191V0H126V724H672ZM667 360Q739 360 778 399T818 511Q818 661 643 661H191V360H667Z" />
<glyph unicode="Q" glyph-name="Q" horiz-adv-x="1051" d="M674 1Q599 -20 526 -20Q343 -20 222 80Q89 189 89 364Q89 536 223 647Q345 748 526 748Q706 748 828 647Q962 536 962 364Q962 125 731 21L828 -86L765 -105L674 1ZM686 70Q893 152 893 364Q893 510
781 602Q677 687 526 687Q375 687 272 602Q160 509 160 364Q160 220 260 132T526 43Q580 43 627 53L534 160L593 178L686 70Z" />
<glyph unicode="R" glyph-name="R" horiz-adv-x="978" d="M892 0H813L586 297H191V0H126V724H672Q772 724 831 666T890 508Q890 415 834 360T672 297L892 0ZM667 360Q739 360 778 399T818 511Q818 661 643 661H191V360H667Z" />
<glyph unicode="S" glyph-name="S" horiz-adv-x="931" d="M751 609Q620 681 450 681Q315 681 244 645T172 541Q172 475 241 447Q302 422 448 416Q573 411 617 406Q697 398 745 377Q851 331 851 216Q851 106 755 45T478 -17Q234 -17 80 90L118 145Q276 44 464 44Q614
44 694 88T775 212Q775 286 702 318Q637 347 481 354Q366 359 321 364Q246 371 202 388Q96 428 96 533Q96 631 187 686T446 742Q673 742 797 659L751 609Z" />
<glyph unicode="T" glyph-name="T" horiz-adv-x="767" d="M762 661H416V0H351V661H5V724H762V661Z" />
<glyph unicode="U" glyph-name="U" horiz-adv-x="1016" d="M890 226Q890 116 788 49Q684 -21 509 -21Q335 -21 231 48T126 226V724H191V251Q191 42 509 42Q825 42 825 251V724H890V226Z" />
<glyph unicode="V" glyph-name="V" horiz-adv-x="831" d="M826 724L465 0H366L5 724H81L416 53L750 724H826Z" />
<glyph unicode="W" glyph-name="W" horiz-adv-x="1086" d="M1068 724L835 0H736L538 667L350 0H250L18 724H92L298 56L488 724H589L788 57L994 724H1068Z" />
<glyph unicode="X" glyph-name="X" horiz-adv-x="823" d="M798 0H713L411 323L111 0H25L370 367L38 724H124L411 413L700 724H785L454 367L798 0Z" />
<glyph unicode="Y" glyph-name="Y" horiz-adv-x="793" d="M788 724L430 291V0H365V291L5 724H84L396 356L709 724H788Z" />
<glyph unicode="Z" glyph-name="Z" horiz-adv-x="793" d="M758 0H27V63L633 661H35V724H731V661L111 63H758V0Z" />
<glyph unicode="[" glyph-name="bracketleft" horiz-adv-x="372" d="M328 -141H100V793H328V759H165V-107H328V-141Z" />
<glyph unicode="\" glyph-name="backslash" horiz-adv-x="505" d="M507 -10H427L-2 724H77L507 -10Z" />
<glyph unicode="]" glyph-name="bracketright" horiz-adv-x="377" d="M272 -141H45V-107H208V759H45V793H272V-141Z" />
<glyph unicode="^" glyph-name="asciicircum" horiz-adv-x="690" d="M107 329Q205 393 342 393Q471 393 549 336T628 190Q628 100 553 45T350 -10Q149 -10 39 100L93 134Q214 52 342 52Q441 52 501 92Q558 131 558 192Q558 255 497 296T335 337Q215 337 102 264L45
312L137 615H583V552H178L107 329Z" />
<glyph unicode="_" glyph-name="underscore" horiz-adv-x="500" d="M500 -187V-236H0V-187H500Z" />
<glyph unicode="`" glyph-name="grave" horiz-adv-x="500" d="M282 668H249L145 807H224L282 668Z" />
<glyph unicode="a" glyph-name="a" horiz-adv-x="758" d="M753 0H677L593 157H166L80 0H5L336 615H423L753 0ZM560 220L381 553H379L199 220H560Z" />
<glyph unicode="b" glyph-name="b" horiz-adv-x="882" d="M688 316Q799 267 799 165Q799 90 746 45T600 0H112V615H596Q682 615 731 572T780 455Q780 363 688 316ZM592 343Q643 343 677 375T711 454Q711 497 682 524T605 552H177V343H592ZM599 63Q731 63 731 168Q731
219 696 249T601 280H177V63H599Z" />
<glyph unicode="c" glyph-name="c" horiz-adv-x="837" d="M772 493L713 470Q620 574 445 574Q309 574 224 498T139 303Q139 192 224 119T445 45Q623 45 713 147L768 113Q667 -16 445 -16Q287 -16 184 68Q70 161 70 310Q70 458 185 550Q291 635 445 635Q660 635 772 493Z" />
<glyph unicode="d" glyph-name="d" horiz-adv-x="889" d="M483 615Q636 615 725 531T814 301Q814 171 726 86T504 0H112V615H483ZM508 63Q567 63 619 91T701 166Q740 228 740 304Q740 416 672 484T492 552H177V63H508Z" />
<glyph unicode="e" glyph-name="e" horiz-adv-x="760" d="M720 0H112V615H696V552H177V357H538V294H177V63H720V0Z" />
<glyph unicode="f" glyph-name="f" horiz-adv-x="711" d="M696 552H177V357H538V294H177V0H112V615H696V552Z" />
<glyph unicode="g" glyph-name="g" horiz-adv-x="890" d="M820 312Q815 161 713 72T446 -18Q290 -18 185 67Q70 160 70 309Q70 456 186 550Q292 636 446 636Q641 636 763 502L703 465Q599 574 446 574Q311 574 226 497T140 302Q140 191 225 118T446 45Q562 45
638 98T741 249H416V312H820Z" />
<glyph unicode="h" glyph-name="h" horiz-adv-x="884" d="M772 0H707V294H177V0H112V615H177V357H707V615H772V0Z" />
<glyph unicode="i" glyph-name="i" horiz-adv-x="290" d="M177 0H112V615H177V0Z" />
<glyph unicode="j" glyph-name="j" horiz-adv-x="625" d="M527 199Q527 -12 265 -12Q20 -12 20 195H82Q83 117 125 83T261 48Q367 48 414 82T462 198V615H527V199Z" />
<glyph unicode="k" glyph-name="k" horiz-adv-x="773" d="M764 0H684L382 349L177 190V0H112V615H177V264L632 615H729L432 387L764 0Z" />
<glyph unicode="l" glyph-name="l" horiz-adv-x="658" d="M653 0H112V615H177V63H653V0Z" />
<glyph unicode="m" glyph-name="m" horiz-adv-x="1033" d="M921 0H856V548H854L517 118L179 553H177V0H112V615H203L517 215L829 615H921V0Z" />
<glyph unicode="n" glyph-name="n" horiz-adv-x="887" d="M775 0H693L177 553V0H112V615H194L710 62V615H775V0Z" />
<glyph unicode="o" glyph-name="o" horiz-adv-x="893" d="M823 309Q823 159 708 66Q604 -18 446 -18Q290 -18 185 67Q70 160 70 309Q70 456 186 550Q292 636 446 636Q600 636 706 550Q823 455 823 309ZM753 303Q753 421 668 497T446 574Q310 574 225 497T140 301Q140
189 224 117T446 45Q583 45 668 117T753 303Z" />
<glyph unicode="p" glyph-name="p" horiz-adv-x="791" d="M581 615Q669 615 720 565T772 430Q772 347 717 298T567 248H177V0H112V615H581ZM577 311Q636 311 668 342T700 432Q700 552 557 552H177V311H577Z" />
<glyph unicode="q" glyph-name="q" horiz-adv-x="903" d="M574 -1Q516 -17 451 -17Q293 -17 190 67Q75 161 75 309Q75 456 191 551Q296 637 451 637Q606 637 712 551Q828 457 828 309Q828 112 634 20L712 -66L651 -85L574 -1ZM590 69Q671 101 714 162T758 303Q758
368 737 414T663 506Q581 575 451 575Q315 575 230 498T145 302Q145 190 229 118T451 45Q497 45 530 53L450 142L510 159L590 69Z" />
<glyph unicode="r" glyph-name="r" horiz-adv-x="850" d="M778 0H699L505 248H177V0H112V615H581Q669 615 720 565T772 430Q772 353 725 306T592 249L778 0ZM577 311Q636 311 668 342T700 432Q700 552 557 552H177V311H577Z" />
<glyph unicode="s" glyph-name="s" horiz-adv-x="802" d="M649 510Q533 571 384 571Q158 571 158 464Q158 406 219 384Q271 364 407 359Q585 352 654 319Q735 281 735 185Q735 90 652 38T413 -14Q200 -14 67 80L104 133Q240 47 414 47Q531 47 595 83T660 179Q660
243 598 269Q545 291 411 297Q230 304 165 331Q83 363 83 452Q83 537 161 584T385 632Q568 632 687 559L649 510Z" />
<glyph unicode="t" glyph-name="t" horiz-adv-x="663" d="M658 552H364V0H299V552H5V615H658V552Z" />
<glyph unicode="u" glyph-name="u" horiz-adv-x="869" d="M764 201Q764 107 675 49T436 -10Q285 -10 195 49T105 201V615H170V222Q170 52 436 52Q699 52 699 222V615H764V201Z" />
<glyph unicode="v" glyph-name="v" horiz-adv-x="724" d="M719 615L407 0H317L5 615H79L362 58L645 615H719Z" />
<glyph unicode="w" glyph-name="w" horiz-adv-x="946" d="M926 615L725 0H634L469 556L313 0H221L20 615H94L265 58L423 615H515L682 59L853 615H926Z" />
<glyph unicode="x" glyph-name="x" horiz-adv-x="690" d="M685 0H599L345 268L92 0H5L303 312L16 615H103L345 358L588 615H674L388 312L685 0Z" />
<glyph unicode="y" glyph-name="y" horiz-adv-x="697" d="M692 615L382 247V0H317V247L5 615H85L348 310L611 615H692Z" />
<glyph unicode="z" glyph-name="z" horiz-adv-x="662" d="M647 0H15V63L523 552H22V615H624V552L104 63H647V0Z" />
<glyph unicode="{" glyph-name="braceleft" horiz-adv-x="380" d="M305 -141H301Q210 -141 169 -111T128 -8V194Q128 286 50 326Q128 366 128 459V653Q128 793 297 793H305V759Q193 759 193 642V521Q193 444 186 412Q173 347 129 328V325Q173 306 186 241Q193
209 193 132V5Q193 -107 302 -107H305V-141Z" />
<glyph unicode="|" glyph-name="bar" horiz-adv-x="756" d="M146 252Q246 372 411 372Q530 372 605 320T681 190Q681 102 607 46T410 -10Q258 -10 167 76T75 303Q75 409 132 487Q232 624 417 624Q541 624 650 528L600 487Q520 563 410 563Q286 563 213 493T140
308Q140 279 146 252ZM166 183Q207 112 267 82Q324 52 413 52Q506 52 557 87T609 184Q609 242 555 279T410 316Q337 316 272 281T166 183Z" />
<glyph unicode="}" glyph-name="braceright" horiz-adv-x="372" d="M324 326Q246 286 246 194V-8Q246 -80 206 -110T73 -141H69V-107H72Q181 -107 181 5V132Q181 210 187 241Q201 305 245 325V328Q201 348 187 412Q181 443 181 521V642Q181 759 69 759V793H77Q246
793 246 653V459Q246 366 324 326Z" />
<glyph unicode="~" glyph-name="asciitilde" horiz-adv-x="652" d="M608 552L216 0H136L528 552H28V615H608V552Z" />
</font>
</defs>
</svg>
